<svg xmlns="http://www.w3.org/2000/svg" xmlns:xlink="http://www.w3.org/1999/xlink" xmlns:svgjs="http://svgjs.com/svgjs" id="SvgjsSvg1412" width="288" height="288" version="1.1"><defs id="SvgjsDefs1413"/><g id="SvgjsG1414"><svg xmlns="http://www.w3.org/2000/svg" display="block" preserveAspectRatio="none" viewBox="0 0 2048 2048" width="288" height="288"><defs><linearGradient id="c" x1="869.036" x2="857.648" y1="1904.67" y2="1896.1" gradientUnits="userSpaceOnUse"><stop offset="0" stop-color="#5C636A" class="svgShape stopColor5c636a-2"/><stop offset="1" stop-color="#778089" class="svgShape stopColor778089-3"/></linearGradient><linearGradient id="b" x1="719.484" x2="705.735" y1="1025.24" y2="1024.94" gradientUnits="userSpaceOnUse"><stop offset="0" stop-color="#535D6C" class="svgShape stopColor535d6c-5"/><stop offset="1" stop-color="#6D757D" class="svgShape stopColor6d757d-6"/></linearGradient><linearGradient id="a" x1="924.572" x2="934.191" y1="560.1" y2="511.366" gradientUnits="userSpaceOnUse"><stop offset="0" stop-color="#545963" class="svgShape stopColor545963-8"/><stop offset="1" stop-color="#6E757D" class="svgShape stopColor6e757d-9"/></linearGradient></defs><path fill="#FCFAFB" d="M 0 0 L 2048 0 L 2048 2048 L 0 2048 L 0 0 z" class="svgShape colorfcfafb-10 selectable"/><path fill="#656C75" d="M 946.673 200.569 C 945.147 199.706 943.645 198.803 942.167 197.859 C 932.146 191.359 927.134 171.802 924.661 160.687 C 917.654 129.192 932.878 136.257 933.875 130.542 C 934.82 125.122 933.438 118.354 933.058 112.839 C 931.76 94.025 935.01 76.6765 945.274 60.6644 C 957.088 42.2325 976.581 30.9793 997.717 26.5655 C 1024.46 20.9812 1054.97 24.2663 1078.06 39.6134 C 1100.42 54.4762 1111.3 77.9495 1111.14 104.454 C 1111.08 113.837 1109.64 123.644 1111.48 132.915 C 1123.53 138.567 1123 145.554 1120.51 157.431 C 1116.71 175.596 1114.92 191.846 1097.7 201.201 C 1094.83 219.256 1087.54 234.134 1085.36 251.375 C 1085.09 262.485 1085 281.81 1091.64 291.284 C 1099.57 301.231 1118.61 307.227 1129.92 312.125 C 1157.03 323.865 1178.9 337.084 1209.11 338.74 C 1231.69 339.978 1260.51 348.288 1275.94 366.902 C 1299.72 395.595 1311.93 446.25 1311.14 483.474 C 1309.41 513.362 1308.22 511.94 1316.66 541.378 C 1319.79 552.069 1322.19 562.96 1323.85 573.974 C 1327.71 600.375 1326.66 626.2 1329.76 652.489 C 1331.03 663.304 1336.39 676.472 1340.28 686.652 C 1348.16 707.298 1356.82 727.577 1363.1 748.811 C 1377.79 798.464 1374.17 849.948 1379.44 900.849 C 1380.68 912.826 1385.6 923.291 1388.76 934.767 C 1389.07 935.933 1388.54 945.683 1388.45 947.5 C 1391.96 951.71 1399.56 955.579 1404.38 959.336 C 1411.44 964.843 1416.61 969.748 1422.96 976.049 C 1442.36 979.653 1438.43 986.312 1446.04 1000.45 C 1447.94 1005.8 1464.18 1015.5 1465.58 1019.23 C 1469.26 1029.1 1477.76 1042.34 1481.47 1052.48 C 1482.52 1055.34 1480.7 1058.25 1479.42 1060.19 C 1466.69 1067.94 1458.15 1057.85 1450.56 1048.78 C 1445.15 1040.03 1431.61 1025.53 1422.92 1019.36 C 1421.45 1026.4 1420.95 1029.12 1418.23 1035.81 C 1423.89 1041.42 1426.63 1045.18 1426.7 1053.06 C 1426.85 1070.27 1429.18 1081.41 1437.01 1096.67 C 1438.23 1099.06 1436.66 1105.77 1437.32 1111.72 C 1438.67 1123.81 1452.26 1149.75 1440.24 1159.56 C 1418.4 1169.35 1419.53 1133.03 1415.17 1121.47 C 1412.96 1115.58 1408.6 1109.47 1407.21 1103.21 C 1406.02 1097.59 1407.59 1091.71 1406.22 1086.09 C 1403.71 1078.61 1400.5 1073.27 1398.27 1065.33 L 1397.9 1063.98 L 1395.88 1063.16 L 1393.98 1064.04 C 1391.31 1071.72 1399.3 1104.35 1402.02 1112.98 C 1403.09 1121.04 1400.28 1123.92 1401.23 1132.85 C 1402.49 1144.84 1416.78 1183.83 1393.24 1182.49 C 1382.39 1181.88 1380.7 1166.73 1379.79 1157.8 C 1378.09 1141.13 1377.82 1129.35 1368.33 1114.33 C 1364.93 1126.83 1366.22 1136.21 1367.37 1149.2 C 1368.04 1159.38 1370.44 1173.92 1357.15 1176.52 C 1351.76 1178.31 1345.12 1169.42 1344.76 1164.6 C 1343.63 1149.64 1338.56 1130.04 1337.82 1115.53 C 1337.1 1101.56 1338 1090.84 1336.32 1076.17 C 1334.6 1074.01 1333.12 1071.59 1331.6 1069.27 C 1329.46 1076.27 1328.03 1084.61 1326.6 1091.88 C 1335.66 1106.23 1330.97 1107.68 1328.18 1123.16 C 1326.22 1133.99 1327.28 1151.1 1316.47 1158.13 C 1308.88 1158.48 1305.8 1150.3 1304.2 1143.97 C 1303.74 1142.15 1303.4 1140.3 1303.18 1138.43 C 1301.97 1128.11 1305.13 1118.53 1301.75 1107.92 C 1300.34 1103.49 1303.36 1097.74 1305.7 1093.87 C 1305.51 1087.84 1305.5 1079.38 1304.41 1073.56 C 1302.52 1063.53 1298.42 1060.15 1304.71 1050.04 C 1304.03 1031.73 1309.35 1008.26 1309.6 989.451 C 1309.68 983.984 1319.39 972.952 1316.85 965.598 C 1315.59 961.95 1310.45 958.042 1309.17 953.961 C 1307.41 949.124 1310.12 942.007 1309.78 938.24 C 1309.39 933.843 1305.6 923.537 1304.11 919.104 C 1290.08 877.417 1266.32 837.907 1252.66 796.354 C 1247.37 780.06 1243.81 763.255 1242.03 746.216 C 1239.48 722.136 1237.78 697.506 1228.62 674.61 C 1218.81 650.093 1211.53 627.064 1204.87 601.534 C 1200.64 630.72 1192.5 658.621 1187.19 687.557 C 1186.08 693.625 1185.42 700.505 1185.26 706.682 C 1184.7 727.253 1192.4 747.062 1194.91 767.277 C 1196.46 779.714 1193.41 791.868 1194.56 804.266 C 1195.84 812.5 1198.91 820.872 1200.93 828.912 C 1211.29 870.07 1216.06 912.728 1222.56 954.602 C 1225.26 971.987 1229.02 989.062 1231.6 1006.38 C 1235.17 1030.99 1237.3 1055.8 1237.98 1080.67 C 1240.34 1144.89 1234.62 1209.16 1220.96 1271.95 C 1212.87 1310.28 1198.91 1344.65 1201.08 1383.86 C 1202.03 1401.13 1199.4 1419.74 1202.43 1436.89 C 1204.54 1448.76 1208.01 1460.67 1210.52 1472.48 C 1214.24 1490.62 1216 1509.11 1215.74 1527.63 C 1215.22 1587.06 1190.28 1653.76 1182.09 1713.27 C 1181.28 1719.21 1177.51 1739.04 1179.36 1743.94 C 1185.38 1759.9 1179.37 1768.19 1176.88 1783.78 C 1186.56 1803.4 1188.59 1825.25 1196.96 1845.15 C 1200.82 1851.05 1210.38 1855.82 1208.79 1864.22 C 1207.01 1873.58 1214.29 1874.96 1217.56 1882.3 C 1222.5 1893.37 1226.42 1905.71 1230.57 1917.15 C 1235.09 1920.28 1240.56 1923.55 1240.37 1931.73 C 1240.07 1944.66 1256.99 1971.64 1234.51 1976.96 C 1231.7 1977.62 1227.93 1973.45 1225.64 1971.44 C 1222.13 1975.59 1225.1 1983.23 1219.46 1987.28 C 1211.63 1992.91 1206.59 1988.49 1202.35 1981.75 L 1201.73 1980.76 C 1198.74 1984.12 1200.32 1993.52 1195.6 1996.71 C 1176.29 2009.77 1169.67 1972.94 1172.77 1960.88 C 1175.62 1958.29 1174.03 1958.87 1177.52 1958.63 C 1179.26 1961.1 1178.47 1971.81 1178.59 1976.38 C 1184.5 1975.56 1188.9 1975.25 1194.83 1974.92 C 1194.02 1952.53 1189.32 1966.73 1176.32 1952.47 L 1175.34 1951.38 C 1172.93 1958.11 1171.29 1958.78 1167.45 1963.81 C 1167.01 1966.8 1169.49 1978.37 1170.39 1981.11 C 1175.37 1996.22 1163.88 2015.63 1147.84 2005.55 C 1139.62 2000.37 1140.1 1976.62 1140.05 1965.12 C 1123.16 1955.68 1135.38 1948.15 1139.26 1938.11 C 1138.41 1929.31 1135.47 1885.94 1131.05 1881.98 L 1128.96 1882.37 C 1120.82 1892.12 1121.91 1926.02 1121.75 1939.22 C 1130.98 1947.79 1132.34 1951.45 1127.09 1962.69 C 1131.81 1976.77 1137.48 1993.86 1125.96 2006.36 C 1121.68 2010.96 1115.69 2013.59 1109.4 2013.62 C 1103.03 2013.7 1096.88 2011.25 1092.3 2006.81 C 1082.97 1997.58 1084.89 1979.84 1085.02 1967.23 C 1075.71 1954.52 1078.77 1947.3 1088.59 1936.8 C 1089.75 1921.37 1091.76 1904.98 1093.42 1889.52 C 1086.98 1879.62 1086.96 1874.66 1093.01 1864.78 C 1093.11 1861.63 1093.44 1852.21 1092.89 1849.61 C 1087.7 1825.07 1080.8 1811.07 1093.14 1786.75 C 1093.01 1786.54 1092.87 1786.32 1092.73 1786.1 L 1092.08 1784.98 C 1081.63 1767.34 1084.81 1753.94 1096.9 1739.1 C 1099.28 1702.83 1095.35 1662.68 1088.23 1626.99 C 1083.26 1604.72 1076.56 1583.99 1074.38 1561.13 C 1070.78 1523.29 1083.13 1486.54 1082.82 1449.12 C 1082.69 1432.82 1072.58 1413.4 1070.71 1397.01 C 1068.57 1378.33 1067.36 1359.65 1063.61 1341.17 C 1056.54 1310.07 1060.71 1273.14 1054.91 1242.85 C 1049.34 1213.75 1039.87 1187.04 1035.19 1156.63 C 1032.1 1136.56 1030.47 1116.29 1030.31 1095.99 C 1030.19 1087.17 1030.75 1064.26 1029.55 1056.89 C 1027.56 1055.9 1020.05 1054.85 1020 1057.42 C 1019.61 1076.14 1020.08 1095.54 1019.31 1114.33 C 1018.82 1127.18 1017.6 1140 1015.67 1152.73 C 1011.18 1183.56 1002.88 1210.43 996.282 1240.37 C 992.127 1259.23 994.609 1286.53 992.187 1306.44 C 989.996 1324.45 988.351 1342.27 984.796 1360.2 C 983.125 1371.57 983.424 1385.09 981.351 1396.69 C 979.495 1412.18 968.046 1433.94 968.307 1449 C 968.876 1481.93 978.822 1514.41 978.276 1547.94 C 977.833 1575.19 970.17 1595.99 964.727 1621.99 C 957.13 1658.27 954.715 1697.88 957.693 1734.76 C 958.007 1738.3 961.554 1747.32 962.954 1750.91 C 968.699 1765.62 966.471 1773.12 960.297 1786.69 C 974.275 1818.42 958.985 1831.95 958.735 1861.79 C 962.978 1867.77 963.459 1869.4 965.774 1876.1 C 963.543 1882.01 963.122 1883.18 959.527 1888.42 C 961.412 1902.78 963.786 1922.27 964.769 1936.55 C 974.323 1947.75 976.359 1954.21 967.91 1966.78 C 968.596 1982.27 971.081 2001.91 954.965 2010.82 C 949.583 2013.78 943.221 2014.4 937.372 2012.53 C 931.468 2010.59 926.606 2006.33 923.903 2000.74 C 918.035 1988.8 922.848 1976.49 927.068 1965.04 C 920.768 1951.53 921.341 1949.8 931.622 1939.83 C 930.786 1930.12 932.847 1885.37 923.035 1882.84 C 916.717 1887.71 916.849 1906.72 915.942 1914.44 C 915.652 1916.91 913.336 1937.57 913.708 1938.1 C 922.01 1949.92 927.582 1952.27 913.891 1964.43 C 914.085 1977.23 914.866 1994.26 906.407 2004.7 C 900.818 2011.6 892.826 2012.04 887.654 2004.25 C 879.884 1992.56 883.842 1976.96 886.181 1964.14 C 884.132 1962.42 881.628 1959.97 879.618 1958.1 C 889.708 1997.79 852.73 2017.86 853.625 1977.68 C 849.967 1983.27 844.15 1992.62 836.479 1990.88 C 831.088 1986.72 830.219 1978.19 826.994 1971.33 C 812.584 1984.9 805.875 1975.98 806.603 1959.43 C 807.058 1949.07 811.717 1938.36 811.38 1927.57 C 811.255 1923.59 818.57 1918.91 821.903 1916.66 C 829.778 1896.41 828.422 1886.7 844.424 1870.84 C 844.059 1868.78 843.783 1867.16 843.596 1865.11 C 842.64 1854.64 850.861 1851.86 854.068 1847.02 C 857.525 1841.8 861.747 1822.85 863.423 1815.52 C 866.293 1802.97 871.439 1791.74 874.014 1779.69 C 874.909 1775.5 869.912 1762.32 870.047 1757.39 C 870.228 1750.74 873.412 1743.34 872.821 1736.99 C 871.327 1720.94 867.607 1704.09 864.422 1688.3 L 848.259 1609.88 C 838.371 1562.34 830.309 1521.3 841.218 1472.64 C 843.57 1462.15 848.726 1445.16 849.616 1434.93 C 851.744 1410.5 849.671 1384.33 849.471 1359.72 C 847.907 1335.41 835.951 1300.86 830.605 1274.41 C 818.32 1213.64 810.553 1157.75 811.904 1095.49 C 812.353 1068.46 812.596 1040.71 816.446 1013.88 C 820.679 984.39 826.005 955.287 829.516 925.622 C 832.37 901.501 837.786 877.106 841.229 853.022 C 843.642 836.143 850.434 820.459 853.414 803.787 C 855.06 794.528 850.258 778.586 852.302 768.605 C 853.737 751.104 862.471 724.902 861.632 709.473 C 859.737 674.626 844.836 636.846 840.265 601.859 C 832.107 639.344 817.812 666.106 808.688 702.468 C 805.495 715.19 804.808 731.03 803.477 744.398 C 801.704 762.948 797.854 781.24 791.999 798.931 C 778.254 839.126 754.999 876.814 741.815 917.54 C 736.638 933.531 736.957 938.92 736.847 955.352 C 736.835 957.182 730.952 962.644 730.682 965.655 C 729.86 974.809 735.291 982.625 736.681 991.481 C 738.375 1010.81 740.128 1031.03 741.104 1050.34 C 748.183 1058.12 738.23 1081.75 741.118 1092.78 C 744.751 1106.66 745.627 1104.66 742.305 1117.82 C 739.89 1127.38 749.494 1159.55 728.068 1156.83 C 718.894 1151.51 719.292 1134.86 717.768 1125.87 C 714.7 1107.77 710.86 1108.71 718.839 1092.26 C 717.906 1084.9 715.723 1075.97 714.116 1068.58 C 703.27 1085.83 709.713 1097.02 708.161 1114.97 C 707.01 1128.3 703.166 1144.23 702.542 1157.97 C 702.229 1164.84 695.693 1180.6 686.459 1176.17 C 667.692 1167.15 687.354 1131.95 677.776 1115.91 C 663.184 1120.53 674.353 1185.41 649.708 1182.66 C 630.003 1177.53 646.734 1144.33 645.367 1134.07 C 642.471 1112.33 647.675 1104.99 651.515 1085.16 C 652.324 1080.99 652.975 1065.53 651.097 1063.34 C 642.618 1067.75 640.091 1096.52 638.234 1104.81 C 636.975 1110.43 632.579 1118.77 630.819 1124.8 C 628.302 1134.39 626.825 1143.1 622.642 1152.1 C 619.621 1158.6 610.17 1164.62 604.868 1158.96 C 594.505 1147.91 607.885 1122.9 609.958 1110.2 C 610.363 1107.72 609.018 1103.71 608.947 1101.12 C 607.817 1093.23 613.811 1089.53 616.51 1082.19 C 621.153 1069.58 615.772 1047.7 625.246 1038.59 C 625.574 1038.28 627.347 1035.3 627.356 1035.32 C 625.553 1030.3 624.639 1024.11 624.063 1019.15 C 609.762 1029.32 603.145 1039.69 592.136 1053.21 C 586.691 1059.9 576.322 1067.86 567.368 1060.48 C 565.8 1059.19 564.857 1054.29 565.523 1051.98 C 568.821 1040.51 575.914 1028.06 582.465 1018.05 C 586.692 1013.34 599.245 1004.03 601.822 998.484 C 607.628 985.993 603.809 980.842 620.097 976.609 C 623.062 975.838 634.783 965.332 638.377 962.548 C 644.271 957.984 651.562 952.327 657.915 947.498 C 654.866 931.02 660.124 930.191 663.141 916.101 C 674.3 863.983 667.075 809.244 680.626 756.977 C 689.685 722.039 706.908 691.378 715.094 656.511 C 717.777 645.083 717.548 627.737 718.077 615.57 C 718.65 600.401 720.027 585.273 722.202 570.25 C 724.234 556.435 736.798 522.157 736.4 513.915 C 735.009 485.086 731.1 464.463 739.869 433.799 C 747.285 407.866 754.105 383.414 773.847 363.379 C 798.24 338.625 830.48 340.676 862.003 334.2 C 890.324 324.906 916.787 311.802 944.088 299.642 C 962.712 291.347 961.768 258.783 958.049 242.189 C 954.787 227.632 949.514 216.462 946.673 200.569 z" class="svgShape color656c75-11 selectable"/><path fill="#FCFAFB" d="M861.816 1971.31C865.821 1964.33 869.253 1957.97 876.122 1953.41L878.141 1953.27C879.292 1955.62 879.42 1955.54 879.618 1958.1L876.554 1959.01C874.937 1962 876.673 1970.67 876.482 1975.82 871.804 1975.08 865.076 1974.63 861.816 1971.31zM1121.6 983.401C1141.63 997.097 1136.39 995.953 1130.18 1014.01 1127.81 1020.9 1136.32 1031.38 1140.8 1037.1 1143.89 1076.61 1139.21 1125.93 1136.23 1165.75 1132.26 1218.73 1127.95 1271.54 1117.12 1323.62 1116.14 1329.78 1114.4 1335.96 1111.53 1341.33 1105.3 1353.22 1093.51 1359.74 1096.22 1374.62 1096.69 1377.25 1088.29 1380.2 1086.94 1384.38 1081.36 1401.57 1087.43 1412.79 1099.17 1424.64 1100.01 1425.49 1095.48 1435.15 1097.25 1437.55 1100.21 1446.84 1105.42 1455.47 1108.55 1464.74 1125.65 1526.44 1120.19 1600.43 1117.12 1664.02 1116.3 1681.12 1114.53 1699.05 1111.6 1715.61 1110.29 1723.02 1107.89 1728.61 1104.72 1735.12 1105.29 1698.49 1101.98 1661.91 1094.84 1625.98 1090.57 1605.27 1083.77 1585.65 1081.39 1564.47 1078.4 1537.89 1082.85 1513.12 1086.68 1487.05 1088.45 1475.02 1090.92 1460.57 1089.68 1448.54 1087.82 1430.65 1080.4 1413.32 1077.27 1395.71 1075.51 1385.82 1075.43 1372.58 1073.71 1363.16 1070.28 1344.37 1067.95 1328.16 1066.15 1309.22 1064.22 1286.74 1064.41 1263.86 1061.5 1241.48 1060.05 1230.36 1055.97 1218.73 1052.87 1207.89 1050.5 1199.89 1048.63 1191.84 1046.85 1183.69 1045.22 1176.26 1044.1 1168.7 1042.68 1161.25 1035.9 1125.75 1036.9 1090.78 1037.11 1054.78 1040.9 1051.86 1045.05 1048.76 1046.27 1043.92L1045.44 1042.85C1040.01 1042.3 1035.39 1047.78 1029.34 1049.01 1025.52 1049.78 1019.63 1049.15 1015.7 1048.87 1012.14 1045.97 1009.12 1041.99 1004.75 1044.51L1004.8 1047.05C1006.62 1051 1008.45 1051.71 1012.2 1054.32 1014.46 1097.62 1012.31 1131.48 1005.43 1173.76 1001.02 1197.05 993.399 1219.38 989.354 1241.34 986.553 1263.01 987.406 1284.96 985.396 1306.73 982.721 1335.68 977.176 1363.9 975.243 1393.02 974.178 1409.07 961.235 1433.7 961.72 1449.52 962.855 1486.55 974.686 1523.04 971.135 1560.52 969.109 1582.66 961.868 1601.77 957.674 1623.17 950.228 1661.16 948.819 1698.87 949.865 1737.41 948.899 1735.22 947.977 1733 947.099 1730.78 931.044 1689.91 927.706 1531.8 938.835 1484.26 941.895 1471.18 947.454 1456.6 953.409 1444.44 956.918 1437.28 956.874 1434.11 953.498 1427.03 951.301 1422.41 960.776 1418.07 963.312 1410.79 965.992 1405.26 965.718 1400.03 966.108 1394.27 966.911 1382.42 960.731 1381.9 955.714 1373.8 956.021 1358.6 943.104 1351.33 939.23 1338.27 922.45 1281.72 918.257 1216.42 913.546 1157.87 910.397 1118.73 906.327 1074.53 908.684 1036.39 910.279 1034.12 918.472 1024.73 918.797 1023.84 927.178 1001.01 899.357 1003.35 927.408 984.001 932.234 1002.05 942.263 1022.45 962.808 1026.32 985.999 1030.69 1002.27 1009.72 1018.87 997.451 1029.63 989.493 1041.5 1007.67 1049.25 1013.35 1078.47 1040.29 1114.04 1023.46 1121.6 983.401z" class="svgShape colorfcfafb-12 selectable"/><path fill="#FCFAFB" d="M 843.875 529.743 C 851.173 544.443 853.89 552.454 867.896 561.923 C 862.956 579.598 867.638 582.906 868.735 599.961 C 869.452 618.188 869.787 635.776 874.449 653.572 C 877.377 664.75 878.24 677.795 884.363 687.802 C 913.175 734.891 934.173 682.872 950.709 659.832 C 956.069 652.364 990.939 617.2 997.353 615.374 L 998.39 616.472 C 997.901 620.441 996.707 622.396 995.032 625.987 C 994.767 626.554 998.366 633.589 997.728 634.799 C 992.243 645.217 989.726 646.995 1000.84 656.077 C 990.217 665.193 989.966 667.544 992.298 682.065 L 999.851 688.64 C 986.638 696.785 985.274 706.445 999.343 714.842 C 976.84 724.73 993.294 731.23 993.436 739.624 C 983.188 752.256 983.09 756.467 995.516 767.177 C 992.582 769.982 986.845 768.788 985.356 772.675 C 981.789 781.991 984.906 787.308 990.979 794.078 C 989.644 796.001 989.202 795.695 987.336 796.967 C 977.152 803.91 984.221 813.049 989.449 817.773 L 989.934 819.725 C 986.272 824.016 986.246 822.714 986.73 829.044 C 986.847 830.462 986.976 831.879 987.116 833.295 C 983.25 831.637 978.599 829.789 974.909 827.911 C 968.882 814.352 963.012 804.579 948.092 798.559 C 931.11 791.824 912.139 792.17 895.414 799.519 C 867.791 811.805 852.483 837.08 865.611 866.955 C 868.005 872.403 871.838 876.85 875.745 881.265 C 894.759 901.223 894.428 904.136 895.582 929.368 C 900.015 933.383 905.051 937.736 909.323 941.833 C 895.171 946.675 890.632 950.992 882.661 964.181 C 862.875 944.212 843.879 963.558 844.32 985.655 C 844.642 1001.75 854.516 1014.31 860.29 1028.63 C 868.205 1052.25 870.367 1083.69 873.021 1108.45 C 877.76 1155.19 881.45 1202.03 884.088 1248.94 C 885.715 1275.89 887.386 1311.1 884.138 1338.03 C 882.305 1353.23 867.385 1358.04 872.052 1377.33 C 854.589 1381.39 859.442 1408.73 870.64 1419.63 C 864.823 1429.41 861.892 1448.6 875.93 1451.89 L 877.393 1451.03 C 876.683 1438.95 863.364 1436.78 876.637 1422.07 C 877.974 1420.61 879.35 1419.18 880.762 1417.78 C 899.582 1442.28 917.182 1446.18 939.769 1423.05 C 943.266 1425.09 949.094 1427.91 949.934 1432.12 C 951.552 1440.21 945.054 1448.46 942.042 1455.54 C 937.83 1465.45 934.732 1475.4 932.645 1485.95 C 924.227 1531.22 925.282 1581.53 927.387 1628 C 931.389 1663.13 927.619 1708.72 945.977 1739.94 C 951.652 1749.59 962.443 1753.59 954.613 1767.99 C 951.785 1773.19 944.012 1773.06 940.666 1769.49 C 934.517 1762.93 929.51 1756.9 919.701 1757.1 C 904.715 1755.89 892.326 1778.21 881.068 1767.87 C 878.621 1765.63 876.377 1758.88 876.859 1755.05 C 877.35 1751.15 880.271 1743.13 880.069 1740.1 C 879.002 1724.05 875.007 1705.62 871.843 1689.92 L 856.557 1615.63 C 851.495 1591.91 845.864 1568.85 843.78 1544.62 C 841.943 1521.79 843.241 1498.81 847.639 1476.33 C 849.873 1465.35 854.946 1447.13 855.994 1436.84 C 858.293 1414.26 856.684 1386.22 856.151 1363.33 C 855.595 1339.47 846.025 1311.85 840.703 1288.14 C 833.055 1254.02 827.071 1219.55 822.771 1184.84 C 816.436 1131.6 817.252 1074.13 822.537 1020.63 C 824.36 1002.17 828.588 983.345 830.669 965.217 C 835.334 924.596 842.469 885.312 849.944 845.122 C 852.276 832.583 857.36 820.412 860.193 808.053 C 862.086 799.793 859.112 789.889 858.956 781.455 C 858.715 768.394 860.965 754.639 863.747 741.909 C 865.919 731.612 868.376 719.664 868.119 709.06 C 867.241 672.829 852.119 636.181 847.084 600.086 C 843.775 576.356 844.94 553.486 843.875 529.743 z" class="svgShape colorfcfafb-13 selectable"/><path fill="#656C75" d="M 872.274 1452.85 C 874.871 1452.68 878.768 1452.2 881.162 1453.39 C 883.691 1454.64 885.778 1457.99 886.947 1460.44 C 898.895 1485.52 907.54 1679.4 903.525 1711.09 C 901.56 1726.59 894.286 1737.31 889.518 1751.67 C 887.557 1757.58 889.127 1760.92 891.79 1766.26 L 890.984 1767.38 C 880.442 1766.08 882.498 1750.04 887.625 1743.99 C 891.057 1739.94 885.123 1731.62 885.197 1726.42 C 885.376 1713.82 884.97 1701.02 884.291 1688.32 C 881.91 1644.95 878.901 1601.62 875.264 1558.33 C 873.931 1540.53 872.254 1522.75 870.233 1505.01 C 868.665 1492.15 866.358 1478.95 865.748 1466.06 C 865.46 1459.97 868.249 1456.91 872.274 1452.85 z" class="svgShape color656c75-14 selectable"/><path fill="#FCFAFB" d="M875.186 1457.22C875.726 1457.38 876.277 1457.51 876.806 1457.7 879.868 1458.81 881.742 1461.22 883.126 1464.06 892.665 1483.63 899.089 1660.16 898.43 1692.13 898.159 1705.28 897.942 1718.95 894.005 1731.59L893.014 1731.66C890.124 1729.04 890.482 1697.15 890.195 1690.5 886.958 1618.39 880.882 1546.44 871.982 1474.82 870.959 1466.14 869.99 1463.77 875.186 1457.22zM1200.59 532.743C1202.88 535.063 1200.52 547.051 1200.91 550.989 1206.25 605.554 1180.1 655.958 1178.71 709.638 1177.82 727.739 1186.78 748.755 1187.62 765.845 1188.85 790.928 1185 799.715 1192.54 825.109 1205.03 867.189 1208.55 914.2 1216.44 957.41 1221.96 987.655 1227.01 1016.52 1229.42 1047.29 1235.41 1119.49 1230.8 1192.19 1215.73 1263.06 1209.9 1291.79 1198.18 1328.64 1195.6 1355.78 1196.77 1374.69 1190.83 1418.85 1195.56 1435.66 1217.62 1514.15 1208.78 1555.89 1191.17 1634.48 1186.11 1657.58 1181.41 1680.76 1177.05 1704.01 1174.92 1715.22 1172.59 1728.11 1172.13 1739.5 1171.87 1745.87 1176.61 1755.98 1174.59 1762.25 1172.71 1768.07 1166.29 1770.22 1161.11 1772.58 1155.77 1766.81 1150.21 1760.51 1142.65 1757.69 1126.35 1751.6 1118.88 1766.81 1107.37 1771.65 1106.35 1772.08 1105.48 1772.45 1104.46 1771.88 1100.91 1769.91 1096.68 1764.98 1096.04 1760.84 1094.41 1750.18 1106.52 1741.34 1111.35 1732.81 1126.66 1705.74 1127.14 1576.45 1125.6 1540.91 1124.87 1521.65 1122.86 1502.45 1119.57 1483.46 1117.58 1471.99 1115.58 1465.28 1110.73 1454.72 1108.43 1449.43 1099.78 1433.53 1105.09 1428.1 1115.26 1417.7 1127.67 1443.99 1145.29 1438.02 1160.64 1432.82 1162.52 1429.61 1170.87 1417.64 1172.3 1418.84 1173.71 1420.04 1175.01 1421.38 1188.86 1435.75 1170.76 1450.49 1164.39 1463.33 1153.63 1485.01 1148.35 1623.61 1147.89 1657.25 1147.52 1679.43 1146.23 1708.4 1152.6 1729.31 1155.05 1737.35 1160.55 1748.59 1163.89 1757.2 1162.14 1760.35 1160.54 1762.57 1160.07 1766.12L1161.23 1767.2C1175.18 1760.3 1161.01 1746.64 1162.37 1739.04L1165.28 1737.79C1168.47 1733.04 1167.51 1698.79 1167.86 1691 1170.53 1636.9 1174.51 1582.87 1179.78 1528.96 1181.72 1507.2 1185.1 1485.57 1186.08 1463.85 1186.3 1458.83 1184.04 1456.53 1180.89 1453.06L1179.85 1451.93C1181.68 1438.16 1193.44 1436.41 1180.87 1419.48 1190.14 1406.35 1195.07 1396.14 1185.25 1381.49 1179.7 1373.22 1182.04 1368.38 1176.95 1359.53 1172.2 1350.18 1166.08 1339.61 1165.68 1328.88 1162.07 1236.78 1174.51 1143.9 1183.25 1052.34 1185.63 1027.35 1205.4 999.513 1205.47 984.529 1205.55 975.974 1202.12 967.761 1195.98 961.803 1185.52 951.772 1175.47 956.656 1167.1 965.883 1156.95 953.888 1153.11 948.665 1138.84 941.796 1162.83 926.039 1147.98 923.056 1156.16 904.009 1165.4 882.492 1186.95 877.525 1187.69 848.6 1189.05 796.17 1113.08 775.884 1081.52 812.659 1076.05 819.062 1070.39 833.026 1061.11 832.502 1059.82 827.219 1060.87 827.318 1058.45 821.183L1057.92 819.871C1058.71 813.772 1066.29 814.165 1064.37 804.865 1062.73 796.884 1059.13 799.011 1055.21 794.103L1057.92 792.011C1065.46 786.258 1063.62 782.638 1061.89 773.537 1060.27 770.751 1056.09 769.838 1052.64 768.264L1052.74 766.528C1065.27 755.62 1063.14 751.017 1052.67 739.012 1069.17 717.728 1051.67 719.722 1048.99 714.595 1061.26 703.192 1061.04 698.608 1047.62 687.497 1051.73 684.88 1053.5 683.201 1057.14 679.888 1056.12 674.652 1055.35 667.552 1054.62 662.116L1046.02 656.524C1046.92 655.789 1047.83 655.046 1048.72 654.294 1054.76 649.237 1057.66 643.972 1050.68 637.889 1046.11 633.914 1051.2 630.122 1051.36 625.934 1051.45 623.36 1047.61 619.814 1047.97 615.523 1055.35 616.272 1086.81 647.156 1094.2 657.046 1111.4 682.109 1136.98 737.403 1164.86 684.716 1175.37 664.854 1176.84 623.333 1178.82 601.227 1180.38 583.771 1185.39 580.624 1179.17 561.688 1192.1 551.925 1193.81 547.461 1200.59 532.743z" class="svgShape colorfcfafb-15 selectable"/><path fill="#FCFAFB" d="M 855.414 376.95 C 852.702 374.113 849.266 370.235 845.958 368.075 C 834.443 360.557 814.023 372.399 803.804 365.298 C 802.236 362.448 802.512 363.957 803.198 360.58 C 814.295 347.612 858.959 355.426 875.1 356.453 C 911.339 358.759 947.535 363.914 983.84 365.749 C 988.843 366.002 993.049 370.385 996.348 373.664 C 1002.92 366.08 1006.65 363.279 1017.03 362.716 C 1032.81 361.86 1039.28 363.429 1049.11 374.909 L 1055.98 367.621 C 1070.43 364.544 1085.84 364.663 1100.82 362.821 C 1124.93 359.891 1148.99 358.013 1173.26 356.528 C 1195.1 355.191 1219.58 350.249 1240.46 358.547 C 1243.71 359.839 1243.5 364.013 1242.47 366.716 C 1233.96 370.784 1211.75 357.449 1194.37 373.661 L 1191.17 376.625 L 1181.55 366.926 C 1155.79 371.007 1129.29 371.807 1103.27 375.375 C 1090.01 377.193 1067.29 377.459 1057.96 388.736 C 1051.94 396.012 1056.86 408.541 1054.54 416.889 C 1053.26 422.633 1048.74 428.511 1049.48 432.393 C 1050.68 438.731 1051.87 441.695 1056.41 446.035 C 1051.15 462.327 1053.3 457.507 1056.46 472.81 C 1057.37 477.234 1053.26 492.162 1054.67 497.509 C 1055.58 505.278 1060.6 511.881 1060.19 520.027 C 1059.13 541.278 1065.38 559.323 1089.59 561.528 C 1118.71 564.182 1172.53 561.729 1169.5 519.814 C 1169.2 515.793 1167.81 509.727 1164.72 507.086 C 1163.06 509.483 1162.84 515.21 1161.81 517.978 C 1147.69 555.768 1097.79 548.27 1069.56 532.92 C 1066.18 531.084 1065.72 526.021 1065.82 523.114 L 1067.11 521.657 C 1074.04 521.582 1082.76 525.404 1089.92 526.194 C 1121.89 529.72 1151.2 525.682 1168.36 496.036 C 1173.92 517.162 1176.5 531.55 1175.1 553.657 C 1156.81 579.256 1112.76 585.958 1084.98 572.85 C 1082.95 569.314 1081.24 565.391 1077.94 563.169 L 1075.96 563.48 C 1071.18 572.138 1094.95 593.664 1100.02 601.385 C 1104.08 607.555 1106.43 618.089 1110.73 622.734 C 1123.01 627.62 1148.23 619.687 1160.01 614.636 C 1162.34 613.644 1164.65 612.619 1166.95 611.562 L 1169.5 613.247 C 1170.11 608.962 1169.08 610.077 1171.4 608.026 C 1173.98 613.342 1170.93 623.088 1168.13 628.103 L 1169.92 629.74 C 1170.86 632.497 1170.21 639.83 1169.72 642.923 C 1166.24 664.963 1141.78 667.42 1133.88 673.64 C 1133.83 674.49 1133.71 675.242 1134.09 676.113 C 1140.39 690.879 1153.31 685.059 1158.8 673.375 C 1160.81 669.085 1163.21 663.41 1165.5 658.715 C 1163.39 679.189 1157.78 692.37 1138.57 702.181 C 1119.45 691.026 1111.1 668.372 1098.19 652.421 C 1086.78 638.335 1073.13 625.654 1058.96 614.479 C 1055.56 611.792 1049.76 605.11 1046.68 604.275 L 1044.23 605.872 C 1040.81 612.33 1043.76 619.319 1044.53 626.778 C 1041.81 632.023 1040.23 633.742 1043.07 639.389 C 1047.13 641.578 1048.85 641.766 1049.42 646.498 C 1046.9 650.969 1042.17 647.965 1040.35 654.793 C 1041.54 660.078 1044.63 662.324 1048.65 665.686 L 1049.78 666.621 C 1054.67 682.861 1037.38 679.598 1043.99 693.324 L 1047.64 695.385 C 1050.99 697.257 1051.13 696.918 1052.8 700.535 C 1052.87 705.143 1053.65 703.389 1051.55 706.472 C 1049.1 707.263 1043.59 708.38 1043.64 711.665 C 1043.69 715.064 1043 717.79 1045.25 720.468 C 1051.27 721.859 1054.49 722.271 1053.96 729.538 C 1049.62 735.391 1047.71 730.86 1044.34 736.035 C 1044.29 740.776 1043.57 739.955 1045.77 743.179 C 1052.06 745.786 1060.19 750.54 1053.27 758.086 C 1050.35 758.835 1048.43 759.018 1046.18 761.005 C 1045.05 771.689 1047.35 771.913 1054.98 777.115 C 1057.49 778.833 1058.95 783.897 1055.99 786.856 C 1053.08 787.247 1051.11 787.179 1048.81 788.95 C 1048.12 792.999 1047.34 796.062 1050.35 799.388 C 1053.55 800.608 1054.76 800.829 1057.3 803.197 C 1058.67 806.853 1058.53 806.758 1058.27 810.453 C 1056.17 813.231 1055.71 812.505 1051.32 813.62 C 1046.2 820.758 1056.34 828.174 1053.36 840.1 C 1046.68 849.358 1010.76 848.1 1000.27 844.17 C 984.662 838.327 999.443 821.683 996.273 814.232 C 990.063 811.654 983.953 806.836 991.074 800.642 C 993.981 800.733 994.788 800.952 997.592 800.128 C 999.155 797.022 998.934 793.09 997.25 790.084 C 994.892 788.759 993.506 787.914 991.286 786.377 C 985.177 772.661 1008.07 772.995 999.745 759.793 C 996.501 758.64 994.003 758.249 992.076 755.531 C 990.21 744.333 995.923 745.651 1002.39 742.176 C 1003.33 738.926 1003.14 739.003 1002.68 735.579 C 1000.21 732.726 999.881 733.433 995.459 732.185 C 988.211 723.739 1002.59 722.836 1003.54 710.498 C 1001.83 707.626 1000.04 708.006 995.869 706.082 C 991.253 696.285 1000.49 696.727 1003.5 691.729 C 1004.36 683.584 1003.88 683.56 998.688 677.4 C 996.559 674.872 996.334 668.032 997.905 664.893 C 1000.79 663.832 1001.5 663.736 1004.04 661.94 C 1006.22 654.969 1005.46 652.591 999.919 648.127 L 998.961 647.369 C 998.303 644.093 998.205 645.679 999.403 642.449 C 1007.9 636.194 1004.55 633.688 1001.68 625.476 C 1004.08 619.186 1005.37 609.199 999.219 604.685 C 985.943 611.826 959.073 642.609 946.908 654.718 C 937.545 664.037 919.969 712.766 899.357 696.915 C 887.689 687.943 883.137 670.976 881.86 656.944 C 886.37 666.706 888.935 681.734 901.415 684.591 C 906.66 685.791 912.416 680.468 913.377 675.238 C 908.277 661.66 871.846 680.445 875.608 602.592 C 877.634 608.334 878.085 612.246 878.959 618.185 C 879.076 615.274 879.083 613.59 879.671 610.683 L 881.587 611.149 C 884.774 612.491 889.015 615.225 892.642 616.594 C 903.098 620.542 925.693 627.114 936.023 622.531 C 940.441 620.57 944.874 606.233 948.153 601.357 C 955.948 589.764 968.215 581.586 972.968 567.85 C 973.856 565.285 973.352 565.213 972.295 563.447 L 969.868 562.98 C 968.108 565.198 963.703 570.525 961.746 572.15 C 954.86 577.869 937.441 579.691 928.851 579.015 C 906.493 577.255 887.447 570.325 872.378 553.625 C 868.963 534.424 874.489 514.138 878.941 495.543 L 884.525 505.748 C 904.469 523.8 922.177 527.637 948.944 527.165 C 958.678 526.993 977.452 521.551 980.147 521.837 C 982.465 522.13 982.178 522.082 984.258 521.734 L 986.516 523.269 C 985.607 520.237 984.932 519.969 985.748 517.557 L 986.929 514.051 C 991.95 499.243 990.829 488.591 991.453 473.531 C 991.974 460.968 994.459 458.855 990.721 445.349 C 993.993 441.112 997.061 435.989 996.151 430.364 C 995.294 425.072 992.472 420.148 991.652 414.802 C 990.124 404.846 994.19 390.725 983.764 384.543 C 968.67 375.592 886.974 368.305 865.362 367.574 C 862.061 370.649 858.604 373.78 855.414 376.95 z" class="svgShape colorfcfafb-16 selectable"/><path fill="url(#a)" d="M 986.516 523.269 C 985.737 545.915 974.819 561.343 950.321 562.252 C 920.748 563.35 868.226 556.811 879.004 513.99 C 880.072 509.747 880.784 508.1 884.525 505.748 C 904.469 523.8 922.177 527.637 948.944 527.165 C 958.678 526.993 977.452 521.551 980.147 521.837 C 982.465 522.13 982.178 522.082 984.258 521.734 L 986.516 523.269 z" class="svgShape colorgradient-17 selectable"/><path fill="#FCFAFB" d="M 884.525 505.748 C 904.469 523.8 922.177 527.637 948.944 527.165 C 958.678 526.993 977.452 521.551 980.147 521.837 C 980.165 523.905 980.332 529.662 979.067 530.758 C 970.113 538.513 948.335 543.931 937.114 544.703 C 923.098 545.666 902.671 540.509 892.327 531.026 C 884.607 523.948 884.99 515.417 884.525 505.748 z" class="svgShape colorfcfafb-18 selectable"/><path fill="#FCFAFB" d="M 882.016 525.847 C 904.092 556.839 944.812 552.613 975.551 538.693 L 976.486 539.424 L 974.818 542.876 C 967.861 551.97 963.213 557.557 950.925 558.18 C 926.569 559.415 885.316 557.254 882.016 525.847 z" class="svgShape colorfcfafb-19 selectable"/><path fill="#5D636D" d="M 1169.5 613.247 C 1170.11 608.962 1169.08 610.077 1171.4 608.026 C 1173.98 613.342 1170.93 623.088 1168.13 628.103 L 1169.92 629.74 C 1162.47 643.994 1154.41 652.957 1138 657.528 C 1125.62 660.978 1118.83 649.152 1117.81 638.186 C 1118.1 637.535 1118.4 636.884 1118.69 636.233 C 1138.23 637.958 1159.58 635.925 1166.54 612.945 L 1166.95 611.562 L 1169.5 613.247 z" class="svgShape color5d636d-20 selectable"/><path fill="#FCFAFB" d="M 1169.5 613.247 C 1170.11 608.962 1169.08 610.077 1171.4 608.026 C 1173.98 613.342 1170.93 623.088 1168.13 628.103 C 1161.54 639.181 1147.96 655.897 1132.72 653.087 C 1128.48 652.304 1126.94 647.292 1125.4 643.681 C 1147.11 639.067 1162.99 637.707 1169.5 613.247 z" class="svgShape colorfcfafb-21 selectable"/><path fill="#5D636D" d="M 878.959 618.185 C 879.076 615.274 879.083 613.59 879.671 610.683 L 881.587 611.149 C 885.479 636.434 910.001 637.371 930.879 636.93 C 928.809 642.638 924.609 655.708 918.474 656.988 C 895.072 661.87 879.561 637.36 878.959 618.185 z" class="svgShape color5d636d-22 selectable"/><path fill="#FCFAFB" d="M882.566 625.589C882.665 625.67 882.765 625.75 882.864 625.831 895.705 641.663 905.357 637.586 921.44 643.049 922.113 646.282 920.582 648.448 919.153 651.58 913.53 656.057 902.503 652.153 897.223 648.31 887.924 641.543 884.553 636.82 882.566 625.589zM1007.56 31.3007C1060.31 24.9918 1107.2 52.9234 1102.97 109.734 1102.49 116.075 1098.76 142.671 1101.18 146.316 1105.12 145.555 1107.46 142.12 1111.99 140.517L1113.54 141.32C1117.53 154.192 1107.84 178.784 1103.47 191.565 1099.76 192.565 1095.94 193.831 1092.27 194.988 1089.56 205.361 1089.03 217.751 1084.34 227.675 1076.01 245.336 1053.81 260.781 1035.96 267.328L1034.24 267.614C1014.14 270.926 1001.84 265.763 985.678 254.392 958.661 235.386 957.757 225.259 952.923 194.75 949.341 193.541 945.591 192.069 942.026 190.745 937.949 182.085 924.656 148.209 931.109 140.281 935.032 140.424 937.965 143.482 942.871 145.641 950.824 141.526 910.9 47.5439 1007.56 31.3007z" class="svgShape colorfcfafb-23 selectable"/><path fill="#656C75" d="M 1048.02 125.208 C 1081.02 121.61 1099.66 149.776 1067.79 165.333 C 1033.4 171.904 1016.38 138.596 1048.02 125.208 z" class="svgShape color656c75-24 selectable"/><path fill="#FCFAFB" d="M 1053.13 135.223 C 1073.24 135.072 1081.98 151.098 1061.13 159.04 C 1040.45 159.075 1031.69 143.062 1053.13 135.223 z" class="svgShape colorfcfafb-25 selectable"/><path fill="#656C75" d="M 979.653 125.166 C 1012.94 122.396 1028.25 151.419 993.879 165.266 C 981.284 167.425 966.041 165.871 961.581 151.562 C 960.077 146.648 960.613 141.336 963.067 136.821 C 967.001 129.627 972.378 127.538 979.653 125.166 z" class="svgShape color656c75-26 selectable"/><path fill="#FCFAFB" d="M 984.355 135.138 C 1004.31 136.108 1011.65 152.68 989.66 158.778 C 969.546 158.71 963.206 141.62 984.355 135.138 z" class="svgShape colorfcfafb-27 selectable"/><path fill="#5D636D" d="M 1028.2 213.67 C 1035.98 214.336 1051.48 213.976 1052.6 223.055 C 1054.09 235.214 1027.12 234.75 1021.51 233.528 C 1014.75 232.544 999.05 234.676 995.239 230.549 C 978.656 212.591 1022.43 214.206 1028.2 213.67 z" class="svgShape color5d636d-28 selectable"/><path fill="#FCFAFB" d="M 1021.36 217.161 C 1025.61 218.079 1044.23 221.92 1046.17 224.101 C 1043.46 227.627 1030.52 229.219 1024.21 231.177 C 1019.31 230.087 1000.89 227.595 998.911 224.66 C 1003.76 219.102 1014.01 221.707 1021.36 217.161 z" class="svgShape colorfcfafb-29 selectable"/><path fill="#5D636D" d="M 1011.15 165.622 L 1013.5 167.45 C 1015.72 173.086 1010.66 186.274 1008.82 193.008 L 1020.41 186.755 C 1024.37 188.749 1029.16 191.683 1033.47 190.708 C 1037.55 184.356 1029.29 174.348 1031.94 166.687 L 1033.35 166.585 C 1036.77 169.646 1036.37 170.971 1037.95 175.744 C 1039.98 181.82 1043.18 190.453 1039.05 196.232 C 1032.99 199.322 1028.18 193.138 1021.67 193.44 C 1012.92 201.404 1000.75 197.926 1004.4 185.037 C 1006.17 178.772 1009 171.896 1011.15 165.622 z" class="svgShape color5d636d-30 selectable"/><path fill="#FCFAFB" d="M 915.595 800.267 C 939.303 797.598 958.741 805.805 967.945 828.543 C 958.794 848.92 956.104 861.037 968.075 881.168 C 955.292 896.623 952.52 911.113 964.998 927.925 C 989.581 961.048 1027.96 974.75 1062.88 947.159 C 1086.24 928.701 1102.46 908.903 1081 881.365 C 1091.43 862.556 1088.13 845.465 1079.92 826.798 C 1088.29 810.376 1101.07 802.091 1119.51 800.243 C 1136.39 798.673 1153.19 803.956 1166.12 814.903 C 1180.89 827.495 1184.88 846.557 1177.2 864.328 C 1173.84 872.109 1169.2 876.544 1163.5 882.618 C 1148.3 898.305 1147.57 907.864 1146.83 928.623 C 1137.78 935.268 1122.25 953.471 1116.02 963.031 C 1116.46 986.651 1111.84 1016.6 1080.84 1021.44 C 1067.78 1023.48 1050.33 1007.07 1040.95 997.911 C 1013.3 969.234 997.504 1023.51 970.241 1021.42 C 937.738 1018.92 932.959 986.902 932.901 962.158 C 928.82 955.924 925.945 955.282 921.802 950.228 C 914.384 941.179 911.063 934.846 902.127 926.83 C 901.578 918.15 900.794 904.932 896.699 897.353 C 887.066 879.526 872.068 875.88 868.505 853.331 C 863.647 822.582 888.876 804.763 915.595 800.267 z" class="svgShape colorfcfafb-31 selectable"/><path fill="#5D636D" d="M 1080.15 959.108 C 1085.05 958.218 1088.51 958.17 1091 963.019 C 1084.03 970.418 1089.83 971.561 1089.51 981.562 C 1089.03 996.537 1078.89 1001.76 1064.97 1000.51 C 1058.52 997.984 1053.61 994.698 1050.79 987.973 C 1042.37 967.853 1065.99 964.175 1080.15 959.108 z" class="svgShape color5d636d-32 selectable"/><path fill="#FCFAFB" d="M 1074.49 968.085 C 1085.77 966.741 1092.34 994.262 1066.66 995.178 C 1059.89 992.609 1052.33 985.79 1056.69 978.122 C 1060.71 971.046 1067.36 969.826 1074.49 968.085 z" class="svgShape colorfcfafb-33 selectable"/><path fill="#5D636D" d="M 961.426 958.623 C 966.501 958.98 973.732 961.607 978.627 963.223 C 999.428 970.085 1006.34 981.682 989.445 998.186 C 987.687 999.021 984.543 1000.52 982.951 1000.67 C 960.444 1002.72 955.466 986.902 961.341 968.347 C 961.239 968.669 957.816 964.924 957.191 962.579 L 961.426 958.623 z" class="svgShape color5d636d-34 selectable"/><path fill="#FCFAFB" d="M969.19 967.811C983.975 970.849 1001.03 974.925 987.192 992.512 968.049 1002.88 959.612 985.385 969.19 967.811zM794.942 357.393C796.481 358.731 796.654 366.466 799.375 369.615 807.724 379.28 828.768 368.332 840.489 371.966 847.172 374.037 847.923 381.662 855.993 382.319 863.711 380.254 861.855 373.321 870.791 375.103 879.535 382.978 867.627 396.864 868.989 404.908 871.487 406.195 870.119 405.928 873.32 404.93 879.939 398.185 877.979 384.439 879.03 375.584 883.854 373.866 915.211 378.497 922.464 379.385 908.842 392.493 905.988 395.645 903.847 414.148 885.821 436.172 890.571 437.014 879.011 461.548 870.832 444.759 862.708 434.774 850.692 420.931 848.082 401.197 841.432 396.356 822.262 398.084 818.329 390.14 815.841 385.85 806.863 383.368 799.644 381.371 789.255 388.568 786.585 394.849 782.573 404.284 789.069 423.24 789.627 433.35 790.014 440.346 789.995 445.551 789.257 452.446 784.262 483.767 776.84 515.263 769.799 546.216 763.624 573.357 758.91 601.441 750.549 627.907 748.883 633.178 742.685 643.848 739.228 648.804 733.841 656.527 725.34 663.897 721.996 672.958 719.903 678.627 726.102 688.333 725.273 690.222 721.147 699.633 719.316 695.4 717.613 707.173 718.241 713.879 720.393 720.399 721.439 727.041 725.272 751.367 693.668 869.726 683.084 897.712 679.871 906.209 676.278 913.31 670.855 920.606 672.023 904.178 674.408 887.891 675.405 871.009 677.721 831.791 678.102 793.08 688.185 754.851 697.233 720.544 716.25 687.882 722.756 653.297 724.189 645.68 724.336 628.524 724.635 620.222 725.067 605.022 726.307 589.855 728.35 574.787 731.486 553.184 739.583 533.744 743.22 512.737 744.148 507.373 741.555 492.202 741.196 485.591 739.978 463.775 744.114 441.692 750.655 420.915 759.302 393.449 768.721 371.339 794.942 357.393zM1250.01 356.247C1261.08 361.475 1271.47 369.442 1277.9 380.341 1292.11 405.468 1305.58 448.7 1304.25 477.709 1302.8 509.234 1300.76 510.19 1309.65 541.055 1312.9 551.969 1315.39 563.095 1317.1 574.354 1319.03 588.101 1320.26 601.94 1320.77 615.814 1321.15 625.472 1321.53 648.008 1323.5 656.237 1330.2 684.157 1343.94 711.912 1353.01 739.945 1367.74 785.465 1368.51 826.848 1370.72 874.021 1371.09 881.911 1375.29 914.84 1374.62 917.909L1373.08 918.024C1372.01 917.138 1371.93 917.154 1370.92 915.864 1357.66 898.94 1327.2 768.236 1325.14 741.596 1324.23 729.795 1327.03 719.641 1328.43 708.108 1327.92 698.936 1326.14 697.725 1321.22 689.733 1321.86 686.22 1325.48 680.008 1324.56 677.252 1318.61 659.481 1302.06 648.222 1295.81 629.51 1288.11 606.435 1284.05 582.743 1278.8 559.04 1273.35 535.06 1268.19 511.016 1263.31 486.914 1259.9 469.93 1254.48 447.736 1256.15 430.22 1256.98 421.515 1263.05 411.717 1261.17 402.001 1258.92 390.432 1248.29 382.358 1236.5 384.512 1230.51 385.795 1227.98 391.19 1225.11 396.079 1216.56 397.435 1207.59 398.215 1201.74 405.32 1198.2 409.625 1198.27 416.916 1195.3 420.632 1184.23 434.515 1175.55 445.406 1167.29 461.183 1159.06 439.029 1157.62 428.91 1140.2 412.066L1140.35 412.147C1139.76 408.64 1140.59 405.325 1140.08 402.893 1137.87 392.32 1130.93 385.858 1123.56 379.311 1136.54 377.229 1154.8 375.914 1168.24 374.54 1165.19 385.817 1166.77 399.082 1176.46 406.638L1177.86 406.249C1178.2 398.388 1171.04 387.979 1172.7 377.234 1177.64 371.428 1186.45 379.954 1191.05 383.418 1195 380.715 1199.52 376.075 1203.2 373.839 1213.55 368.01 1226.82 373.793 1237.8 373.61 1249.67 373.413 1250.22 365.417 1250.01 356.247z" class="svgShape colorfcfafb-35 selectable"/><path fill="#FCFAFB" d="M1197.55 428.671C1203.63 433.486 1211.63 438.829 1216.26 445.03 1227.68 460.304 1253.45 601.093 1256.09 624.269 1257.7 638.362 1258.67 652.498 1256.43 666.558 1239.86 685.048 1237.4 696.607 1262.08 708.648 1252.55 725.416 1270 731.802 1278.98 742.512 1289.35 754.87 1308.97 858.039 1313.23 880.081 1315.12 889.84 1322.01 920.964 1316.94 928.445 1312.55 926.207 1299.19 887.247 1295.62 878.745 1282.4 845.65 1263.49 815.873 1254.98 780.334 1249.15 756.003 1248 734.884 1244.91 710.345 1242.68 692.598 1234.28 670.858 1228.33 654.058 1209.65 610.238 1204.39 567.688 1209.44 520.729 1210.3 512.746 1213.39 503.232 1213.12 495.083 1211.18 492.555 1212.31 493.678 1208.52 492.524 1205.99 496.424 1204.92 505.584 1203.01 510.669 1197.01 526.632 1190.5 540.485 1180.64 554.298 1183.13 523.945 1176.21 500.96 1170.09 471.166 1175.8 454.25 1185.8 441.693 1197.55 428.671zM848.673 428.824C856.614 433.489 874.572 461.647 874.466 471.119 874.121 501.9 863.174 522.279 867.349 554.632 857.186 542.138 850.375 528.124 844.514 513.206 842.093 507.044 841.204 495.53 837.585 492.076 836.689 492.455 833.744 493.649 833.901 495.021 837.436 525.832 841.115 560.494 835.943 591.218 829.994 626.552 813.156 659.495 804.004 694.041 797.535 718.461 798.128 742.542 793.544 767.197 786.24 804.53 766.582 842.026 750.501 876.753 742.756 894.118 737.386 914.391 730.659 929.044L729.461 929.197C728.945 928.036 728.478 926.966 728.209 925.719 724.099 906.709 754.24 768.114 764.143 748.009 769.204 737.733 781.11 733.056 786.388 723.115 788.951 718.288 786.84 713.393 785.488 708.515 787.358 704.377 793.378 703.62 796.565 700.556 811.758 685.954 789.336 670.084 788.31 657.851 787.478 647.939 788.831 629.049 790.186 619.638 794.126 592.291 799.835 566.025 805.756 538.797 812.197 509.171 817.711 474.347 828.937 446.351 830.886 441.492 843.687 432.687 848.673 428.824zM906.594 948.833C913.701 949.236 922.982 959.452 926.984 965.058 926.357 970.486 925.829 973.066 924.472 978.371 902.11 997.089 906.041 991.978 915.501 1018.61 911.769 1023.35 906.01 1027.99 903.791 1033.64 895.725 1054.15 911.9 1215.17 915.865 1247.68 918.969 1273.13 922.155 1300.19 928.356 1325.05 930.864 1335.1 935.249 1344.5 940.494 1353.38 943.206 1357.97 946.994 1363.15 948.668 1368.23 949.407 1370.47 949.385 1372.93 947.742 1374.83 941.523 1382.02 926.1 1368.95 918.722 1366.84 914.045 1365.5 909.474 1365.82 904.729 1366.53L903.509 1366.73C895.434 1369.63 886.596 1377.1 882.385 1377.35 873.279 1372 877.277 1364.6 881.691 1357.67 888.252 1347.37 891.539 1336.06 891.894 1323.86 893.311 1275.1 888.882 1226.3 885.244 1177.7 883.118 1147.51 880.34 1117.37 876.914 1087.3 875.391 1073.86 873.889 1059.44 871.528 1046.27 868.146 1029.81 863.155 1019.61 855.299 1004.06 849.043 991.678 847.476 969.507 862.502 961.553 867.592 958.858 876.139 967.96 880.601 969.738 887.543 972.502 894.764 956.652 899.579 953.227 902.31 951.185 903.439 950.513 906.594 948.833zM1137.05 949.684C1148.89 949.209 1153.12 961.913 1160.39 968.429 1168.97 975.942 1176.54 962.652 1185.11 962.414 1194.32 962.158 1200.24 979.604 1198.95 986.89 1196.06 1003.09 1183.35 1020.05 1179.93 1036.31 1175.99 1055.03 1174.38 1076.2 1172.42 1095.39 1168.35 1135.06 1165.05 1174.8 1162.51 1214.59 1159.6 1256.34 1154.96 1301.86 1162.55 1343.09 1164.14 1351.73 1179.85 1370.6 1173.32 1376.58 1165.78 1377.06 1159 1370.87 1151.94 1367.58 1134.77 1363.08 1122.84 1369.21 1111.33 1381.66 1108.78 1379.7 1105.18 1376.89 1103.2 1374.2 1096.3 1364.82 1116.53 1349.15 1119.91 1337.55 1122.63 1329.36 1124.33 1320.34 1125.85 1311.78 1137.19 1247.88 1140.88 1182.64 1145.97 1118 1147.97 1092.55 1148.65 1066.55 1147.81 1041.08 1147.64 1035.87 1141.95 1029.52 1139.23 1025.24 1131.31 1014.66 1140.25 1009.62 1141.8 999.496 1144.08 987.081 1129.75 985.208 1125.07 978.094 1116.71 965.405 1128.9 955.857 1137.05 949.684z" class="svgShape colorfcfafb-36 selectable"/><path fill="#FCFAFB" d="M802.099 388.963C813.647 389.269 813.894 393.592 818.195 402.992 825.438 404.989 837.339 403.256 841.341 409.401 852.853 427.076 827.705 433.347 823.622 442.228 815.883 459.062 811.399 483.202 807.592 500.907L794.314 564.122C788.422 591.877 778.375 633.413 783.156 662.443 784.85 672.73 805.59 689.111 788.626 699.857 785.574 701.79 782.704 701.314 779.572 700.64 776.179 697.896 777.226 699.574 776.098 695.57 766.097 667.055 738.052 696.979 729.831 684.72 721.055 671.634 747.523 652.303 752.643 638.981 756.909 627.88 760.709 617.302 763.633 604.431L782.658 517.089C787.76 494.074 793.382 471.192 796.532 447.839 798.46 437.464 795.624 427.78 793.087 417.765 789.483 403.536 788.975 396.938 802.099 388.963zM1236.54 389.952C1267.02 390.896 1250.38 418.789 1249.58 434.693 1248.74 451.221 1254.37 474.442 1257.8 491.007L1273.16 563.319C1279.41 592.837 1284.29 626.342 1300.45 652.238 1304.54 657.719 1325.76 677.483 1315.77 684.88 1302.3 694.849 1291.2 670.135 1272.62 691.167 1272.45 691.576 1272.29 691.985 1272.12 692.393L1271.36 694.153C1269.11 699.392 1262.61 705.726 1257.02 701.112 1239.69 686.815 1263.77 672.555 1263.94 655.623 1263.91 640.405 1263.34 624.259 1260.37 609.208 1249.9 556.124 1241.12 501.435 1225.59 449.619 1221.45 437.576 1204.2 430.79 1202.31 418.225 1200.49 406.14 1219.53 404.058 1227.61 403.409 1230.41 397.801 1231.75 394.003 1236.54 389.952zM730.568 694.748C739.462 696.283 738.216 697.462 743.993 703.966 752.123 713.119 757.676 712.424 769.011 713.084 771.36 710.971 773.903 708.404 776.213 706.186 778.645 709.88 781.002 714.19 783.23 718.057 776.905 728.112 760.965 738.93 758.333 747.546 741.493 802.655 728.172 861.762 721.812 919.075 720.153 934.022 731.07 934.505 731.493 947.617 731.075 956.249 725.356 959.617 717.49 957.414 698.638 913.164 678.022 950.571 665.468 943.295 656.239 928.904 680.374 919.726 685.304 906.415 704.239 855.288 716.293 799.775 727.12 746.347 730.917 727.611 715.988 709.44 730.568 694.748z" class="svgShape colorfcfafb-37 selectable"/><path fill="#C7C7C9" d="M 742.281 715.658 C 748.609 736.165 709.34 877.718 703.213 906.37 C 701.441 900.684 711.244 867.559 713.152 859.518 C 721.308 826.054 728.963 792.469 736.112 758.775 C 740.084 739.842 739.541 734.052 742.135 716.596 L 742.281 715.658 z" class="svgShape colorc7c7c9-38 selectable"/><path fill="#FCFAFB" d="M 1309.39 694.754 C 1330.93 694.436 1319.1 719.592 1318.77 731.726 C 1318.47 743.08 1320.39 757.433 1323.03 768.453 C 1334.32 815.463 1344 863.701 1361.28 908.94 C 1364 917.091 1380.05 924.854 1381.87 932.51 C 1384.28 946.646 1376.42 946.301 1366.53 940.367 C 1349.05 929.887 1337.84 938.942 1329.65 953.558 C 1327.74 957.577 1327.09 957.779 1322.99 958.279 C 1319.68 957.067 1318 955.624 1316.41 952.513 C 1310.87 941.728 1321.19 936.827 1323.55 927.57 C 1328.9 906.598 1297.24 768.701 1287.05 745.845 C 1282.27 735.107 1270.64 729.713 1264.55 719.429 L 1263.83 718.186 C 1273.25 698.322 1274.24 712.468 1289.28 712.623 C 1301.74 712.752 1303.26 700.71 1309.39 694.754 z" class="svgShape colorfcfafb-39 selectable"/><path fill="#C7C7C9" d="M 1302.3 715.871 C 1304.11 717.778 1304.85 727.041 1305.25 730.147 C 1311.4 778.611 1325.36 825.784 1336.12 873.35 C 1338.15 882.346 1341.29 892.046 1341.86 901.25 C 1339.08 895.125 1331.39 863.04 1329.59 854.685 C 1320.69 813.178 1303.64 757.586 1302.3 715.871 z" class="svgShape colorc7c7c9-40 selectable"/><path fill="#FCFAFB" d="M1074.79 832.885L1076.29 833.855C1081.47 845.04 1084.95 865.051 1077.01 875.455 1072.21 881.691 1065.65 885.665 1060.69 891.82 1050.3 904.713 1035.65 922.252 1033.88 939.226 1033.26 945.239 1036.65 954.542 1028.05 957.134 1020 959.561 1013.22 956.588 1014.35 947.372 1015.55 933.615 1007.7 925.027 1003.94 913.047 999.366 906.773 994.422 899.857 989.531 893.969 982.449 885.442 971.807 879.131 968.391 868.088 964.239 854.662 966.821 845.361 972.781 833.701L987.44 838.454C995.22 856.004 1024.72 853.73 1040.69 851.678 1049.76 850.512 1055.5 847.028 1060.53 839.556 1067.13 837.209 1068.76 836.656 1074.79 832.885zM965.969 245.988C976.923 256.15 982.462 260.292 995.234 268.12 991.135 278.797 992.809 283.487 999.163 292.03 990.424 303.574 993.216 303.403 997.504 313.146 999.091 316.75 990.62 325.391 995.191 331.368L996.996 332.043C994.377 337.834 994.063 342.212 995.296 348.567 997.721 350.265 997.363 349.486 998.582 351.788L996.815 353.019C991.257 351.888 985.502 342.425 979.056 341.767 963.441 340.171 951.929 349.077 940.533 357.358 916.875 354.179 899.292 353.155 875.511 351.644 850.959 350.084 839.452 347.982 814.312 349.939 831.369 344.232 854.685 344.187 864.306 340.503 888.116 331.387 938.922 312.183 958.179 297.01 967.744 289.473 966.321 257.797 965.969 245.988zM1050.64 268.129C1062.59 260.523 1068.43 256.454 1078.74 246.901 1078.96 259.153 1078.36 290.125 1088.66 297.722 1109.48 313.068 1158.8 331.92 1183 341.697 1186 342.908 1219.92 346.969 1230.17 349.739 1215.66 349.203 1201.59 348.7 1187.11 350.064 1160.53 352.568 1130.58 351.595 1104.43 357.27 1091.19 345.205 1071.13 334.201 1055.42 348.61L1053.51 347.212C1052.79 342.562 1051.53 337.46 1050.49 332.825 1055.54 328.748 1053.44 324.062 1050.63 318.11 1046.93 310.279 1054.64 311.985 1053.19 303.802 1052.58 300.348 1050.05 294.636 1049.31 290.992 1054.08 280.48 1054.2 280.749 1050.64 268.129zM880.034 1788.5C900.574 1790.35 901.689 1820.57 943.618 1799.36 948.635 1807.89 953.219 1819.83 957.835 1829.29 953.691 1839.54 951.119 1844.74 951.721 1856.09 951.735 1856.35 951.448 1858.61 951.47 1858.62 946.39 1858.67 939.255 1857.43 934.472 1859.04 930.19 1860.48 927.278 1867.37 922.063 1866.76L919.184 1862.86C910.844 1856.07 904.778 1856.1 894.858 1858.72 895.983 1853.13 898.019 1845.62 895.687 1840.36 891.542 1843.84 888.809 1859.61 886.094 1866.19L884.406 1866.49 882.996 1864.88C880.78 1851.33 874.869 1849.49 862.175 1847.08 868.454 1828.61 870.737 1804.61 880.034 1788.5zM1164.5 1790.91C1167.79 1788.92 1166.09 1789.26 1169.74 1789.65 1178.72 1795.69 1185.19 1833.61 1189.31 1846.47 1164.21 1852.45 1173.94 1861.98 1168.59 1866.94 1165.44 1864.2 1162.33 1848.68 1157.79 1841.8L1156.77 1841.87C1155.78 1847.83 1156.95 1852.28 1157.93 1858.26 1143.96 1856.17 1139.25 1857.6 1130.07 1868.98 1116.44 1851.14 1105.02 1861.5 1100.88 1857.96 1099.45 1845.99 1099.92 1841.2 1095.61 1829.69 1100.24 1818.49 1103.71 1810 1110.44 1799.75 1128.01 1810.52 1149.32 1807.61 1163.68 1792.91L1164.5 1790.91z" class="svgShape colorfcfafb-41 selectable"/><path fill="#C7C7C9" d="M 1163.68 1792.91 L 1164.5 1790.91 C 1167.98 1796.46 1173.98 1809.91 1175.17 1816.38 L 1174.56 1817.72 C 1171.94 1816.46 1167.33 1798.3 1163.68 1792.91 z" class="svgShape colorc7c7c9-42 selectable"/><path fill="#FCFAFB" d="M 669.94 973.58 C 675.367 978.228 676.95 980.558 683.347 984.976 C 696.043 981.202 697.152 980.849 708.13 988.21 C 711.663 985.895 715.011 983.119 719.087 983.324 L 720.945 981.946 L 721.716 979.523 L 723.243 978.734 C 730.541 981.846 732.823 1003.38 730.938 1010.47 C 732.6 1017.3 734.907 1036.42 734.606 1043.37 C 730.936 1045.68 726.165 1044.41 719.796 1045.87 L 719.008 1048.09 L 716.071 1049.05 L 716.796 1050.9 C 714.717 1054.43 716.113 1053.12 712.436 1054.97 C 709.084 1054.3 710.678 1054.99 707.9 1052.05 C 706.202 1049.1 707.336 1050.29 704.209 1048.54 C 699.964 1048.61 695.719 1048.61 691.474 1048.55 C 693.144 1038.09 697.744 1010.38 689.652 1002.39 C 678.468 1002.05 677.363 1038.13 676.631 1046.75 C 673.135 1046.43 668.318 1046.64 665.234 1045.05 C 662.342 1043.55 674.405 1007.67 671.037 999.613 C 670.096 997.361 670.746 998.091 668.534 997.173 C 658.155 1002.08 651.971 1029.48 650.54 1039.95 C 643.401 1036.99 640.874 1036.48 633.562 1035.36 C 644.046 1023.21 656.735 998.729 657.872 982.549 C 661.9 978.8 665.415 976.607 669.94 973.58 z" class="svgShape colorfcfafb-43 selectable"/><path fill="url(#b)" d="M 704.209 1048.54 C 704.308 1048.47 704.429 1048.43 704.505 1048.34 C 707.085 1045.24 703.711 1014.13 705.513 1006.48 C 706.271 1003.26 707.397 1001.84 710.196 1000.19 C 723.868 1001.18 720.883 1036.22 719.796 1045.87 L 719.008 1048.09 L 716.071 1049.05 L 716.796 1050.9 C 714.717 1054.43 716.113 1053.12 712.436 1054.97 C 709.084 1054.3 710.678 1054.99 707.9 1052.05 C 706.202 1049.1 707.336 1050.29 704.209 1048.54 z" class="svgShape colorgradient-44 selectable"/><path fill="#FCFAFB" d="M707.9 1052.05C708.597 1051.33 710.325 1049.54 710.404 1048.62 711.449 1036.47 707.796 1020.57 711.413 1008.79L712.56 1008.73C719.293 1022.33 714.15 1035.41 716.071 1049.05L716.796 1050.9C714.717 1054.43 716.113 1053.12 712.436 1054.97 709.084 1054.3 710.678 1054.99 707.9 1052.05zM720.945 981.946L721.716 979.523 723.243 978.734C730.541 981.846 732.823 1003.38 730.938 1010.47L728.949 1007.11C724.755 998.705 727.676 994.341 719.087 983.324L720.945 981.946z" class="svgShape colorfcfafb-45 selectable"/><path fill="#656C75" d="M 720.945 981.946 C 727.44 989.787 728.649 997.039 728.949 1007.11 C 724.755 998.705 727.676 994.341 719.087 983.324 L 720.945 981.946 z" class="svgShape color656c75-46 selectable"/><path fill="#FCFAFB" d="M 1012.82 289.452 C 1012.03 284.237 1012.93 284.36 1009.97 281.312 C 1005.42 280.158 1004.63 280.416 999.818 280.791 L 998.649 280.003 C 998.39 276.721 999.118 275.63 1000.34 272.602 C 1002.55 271.68 1001.47 271.697 1003.09 272.271 C 1017.28 277.293 1029.07 276.988 1043.18 271.913 C 1046.06 270.878 1045.24 270.981 1046.6 273.037 C 1046.92 277.339 1047.73 277.873 1045.97 280.864 C 1040.64 281.362 1039.11 280.008 1035.6 282.017 C 1033.92 285.739 1034.09 283.908 1034.68 287.65 C 1039.3 292.148 1045.5 292.807 1045.94 299.487 C 1041 303.638 1036.58 299.102 1034.8 306.644 C 1037.11 312.819 1045.17 314.602 1046.78 320.53 C 1044.59 325.288 1042.81 324.573 1037.75 324.868 C 1041.15 325.14 1043.41 324.891 1046.29 326.325 L 1044.3 325.876 L 1045.28 327.381 C 1041.75 328.873 1042.55 327.707 1041.38 330.218 C 1044.16 332.769 1046.1 332.223 1050.49 332.825 C 1051.53 337.46 1052.79 342.562 1053.51 347.212 L 1055.42 348.61 C 1052.79 352.498 1053.68 352.46 1050.06 354.082 C 1047.25 353.117 1048.1 353.755 1046.03 351.87 L 1043.3 353.372 C 1045.07 355.492 1046.78 358.622 1046.74 361.46 L 1045.53 361.843 C 1044.72 361.377 1043.91 360.926 1043.08 360.492 C 1036.83 357.251 1009.08 357.939 1002.16 360.149 L 1000.56 360.67 L 1000.12 359.028 C 1001.98 355.295 1004.61 353.166 1007.59 350.226 C 1003.61 346.943 1000.36 345.337 1000.38 339.827 C 1002.09 336.192 1007.38 334.447 1010.98 331.616 C 1011.84 328.004 1011.95 329.81 1009.99 326.084 C 1006.68 324.074 1003.43 324.385 999.496 324.237 C 998.303 327.292 998.432 327.343 998.201 330.672 L 996.996 332.043 L 995.191 331.368 C 990.62 325.391 999.091 316.75 997.504 313.146 C 993.216 303.403 990.424 303.574 999.163 292.03 C 1000.81 291.37 1001.53 290.809 1003.06 289.879 L 1002.79 288.899 L 1004.6 286.867 C 1007.33 287.768 1010.07 288.63 1012.82 289.452 z" class="svgShape colorfcfafb-47 selectable"/><path fill="#5D636D" d="M999.163 292.03C1000.81 291.37 1001.53 290.809 1003.06 289.879L1002.79 288.899 1004.6 286.867C1007.33 287.768 1010.07 288.63 1012.82 289.452 1007.9 291.182 996.944 295.895 999.629 302.313 1006.35 305.921 1008.54 295.662 1012.13 309.446 1016.31 312.206 1019.49 308.692 1023.46 311.415L1023.55 312.836C1016.31 313.815 1008.66 311.209 1004.28 313.776 1002.58 317.287 1001.07 320.666 999.496 324.237 998.303 327.292 998.432 327.343 998.201 330.672L996.996 332.043 995.191 331.368C990.62 325.391 999.091 316.75 997.504 313.146 993.216 303.403 990.424 303.574 999.163 292.03zM1043.3 353.372C1041.64 352.469 1041.33 352.177 1039.81 351.045L1040.04 349.237C1045.02 345.552 1047.18 345.184 1046.92 338.958 1043.87 333.723 1037.69 336.605 1035.33 329.108 1036.06 326.597 1035.87 326.625 1037.75 324.868 1041.15 325.14 1043.41 324.891 1046.29 326.325L1044.3 325.876 1045.28 327.381C1041.75 328.873 1042.55 327.707 1041.38 330.218 1044.16 332.769 1046.1 332.223 1050.49 332.825 1051.53 337.46 1052.79 342.562 1053.51 347.212L1055.42 348.61C1052.79 352.498 1053.68 352.46 1050.06 354.082 1047.25 353.117 1048.1 353.755 1046.03 351.87L1043.3 353.372z" class="svgShape color5d636d-48 selectable"/><path fill="#FCFAFB" d="M1053.51 347.212L1055.42 348.61C1052.79 352.498 1053.68 352.46 1050.06 354.082 1047.25 353.117 1048.1 353.755 1046.03 351.87 1050.28 350.398 1050.54 350.41 1053.51 347.212zM1376.21 974.672C1379.69 976.304 1383.98 979.303 1387.32 981.45 1390.73 999.38 1401.18 1021.94 1413.83 1035.46 1405.65 1036.74 1403.49 1037.73 1396.27 1041.16 1394.42 1031.61 1388.15 1001.76 1377.11 999.567L1375.61 1000.88C1374.24 1009.7 1380.76 1036.24 1382.78 1046.39L1368.94 1047.1C1369.04 1037.69 1366.99 1006.72 1359.06 1001.46 1351.71 1002.17 1352.41 1012.69 1351.95 1018.55 1351.9 1027 1353.67 1039.96 1354.44 1048.97L1340.65 1048.54C1341.53 1036.94 1347.34 1006.11 1335.56 999.853 1323.61 1003.35 1324.73 1035.11 1325.99 1045.44 1320.69 1044.52 1316.26 1044.32 1310.93 1043.99 1314.17 1022.04 1312.88 998.193 1322.96 978.898 1329.71 982.321 1332.26 983.749 1338.36 988.179 1343.05 985.713 1346.55 983.994 1351.39 981.846L1364.45 985.193C1369.5 981.255 1371.72 979.213 1376.21 974.672zM1174.43 1457.36C1180.3 1460.58 1181.45 1464.61 1180.64 1471.02 1171.92 1540.61 1166.35 1610.82 1162.62 1680.86 1161.7 1698.17 1161.87 1715.57 1160.74 1732.83 1150.4 1719.04 1153.45 1651.93 1154.16 1632.95 1155.35 1595.6 1157.79 1558.3 1161.46 1521.12 1163.19 1503.37 1163.95 1471.21 1174.43 1457.36zM906.477 1372.22C912.304 1371.84 916.615 1371.99 922.098 1374.3 928.812 1377.09 934.114 1382.47 936.796 1389.22 943.789 1406.67 934.239 1425.93 916.546 1432.01 882.493 1435 867.44 1384.46 906.477 1372.22zM1137.87 1372.16C1178.03 1371.95 1176.31 1422.8 1144 1432.13 1108.38 1433.13 1099.02 1381.63 1137.87 1372.16zM877.298 1875.8L881.132 1873.07C884.219 1874.6 885.298 1880.89 886.868 1884.38 883.035 1892.36 866.587 1927.15 879.376 1931.44L881.931 1930.85C882.895 1927.33 879.223 1926.14 879.59 1923.31 880.893 1913.25 885.576 1900.59 889.951 1891.62 890.246 1903.9 891.603 1919.31 885.993 1930.13L886.422 1932.18C889.364 1933.36 887.847 1933.25 891.14 1932.13 896.195 1926.18 896.107 1904.3 895.483 1896.49 895.325 1894.54 895.14 1892.6 894.929 1890.66 901.151 1891.42 903.153 1891.77 909.492 1891.3L911.331 1891.17C911.698 1891.14 912.066 1891.11 912.433 1891.08 911.227 1905.56 909.585 1921.19 908.754 1935.57 893.597 1931.65 890.201 1933.23 879.514 1945.03 874.69 1925.05 861.477 1921.41 845.047 1932.34 850.348 1905.5 848.554 1909 864.511 1888.83 864.877 1887.3 868.108 1882.7 869.182 1881.1 872.442 1876.23 872.384 1876.77 877.298 1875.8z" class="svgShape colorfcfafb-49 selectable"/><path fill="url(#c)" d="M 864.511 1888.83 C 864.877 1887.3 868.108 1882.7 869.182 1881.1 C 872.442 1876.23 872.384 1876.77 877.298 1875.8 C 870.235 1887.83 866.069 1909.35 859.137 1923.67 L 851.322 1917.5 C 853.726 1917.12 854.552 1916.97 856.641 1915.73 C 858.938 1909.88 864.885 1894.73 864.511 1888.83 z" class="svgShape colorgradient-50 selectable"/><path fill="#FCFAFB" d="M1170.75 1872.84C1183.27 1885.5 1187.02 1905.8 1193.96 1923.85L1202.76 1916.61 1197.49 1915.36C1194.02 1912.83 1189.2 1894.49 1187.45 1888.88 1194.09 1895.86 1209.79 1918.85 1206.98 1928.2L1204.99 1929.25 1194.92 1925.41C1181.31 1928.95 1177.23 1931.32 1173.52 1945.41L1172.44 1944.12C1161.84 1931.75 1159.61 1934.87 1145.33 1933.72 1143.04 1930.82 1143.84 1930.63 1143.66 1925.98 1142.76 1914.25 1141.57 1902.54 1140.08 1890.87 1148.46 1892.51 1150.59 1892.73 1158.61 1889.98 1157.1 1900.13 1155.54 1924.41 1162.37 1932.41 1165.74 1933.5 1164.17 1933.63 1167.26 1932.14L1167.62 1930.08C1161.06 1920.02 1162.47 1904.08 1163.27 1892.18 1165.57 1897.05 1174.05 1918.61 1172.51 1924.18 1172.64 1923.69 1171.04 1928.07 1170.98 1928.24L1170.3 1929.97 1171.39 1931.32 1173.66 1931.13C1175.51 1929.84 1176.91 1929.43 1177.49 1927.62 1180.73 1917.51 1169.96 1893.54 1166.05 1883.68L1170.75 1872.84zM1149.09 470.048C1161.64 480.614 1145.32 493.328 1135.73 497.643 1113.87 507.473 1090.71 507.385 1068.41 499.567 1065.27 498.375 1065.08 498.502 1062.56 496.108 1060.75 491.928 1061.73 486.599 1062.07 481.816 1097.61 488.965 1118.02 487.832 1149.09 470.048zM896.74 468.406C929.151 487.452 947.092 488.883 984.847 481.834 985.143 488.3 986.897 494.809 981.766 499.041 961.234 505.681 939.008 507.155 918.35 500.099 902.758 494.773 890.009 486.86 896.74 468.406zM934.015 379.455L936.3 380.714C935.29 384.395 923.096 392.616 923.743 399.477 926.299 426.606 975.081 416.878 989.439 427.016 990.92 428.061 989.834 434.53 989.411 436.698 986.652 439.268 987.749 438.482 983.246 438.951 960.873 440.833 928.384 440.074 914.105 419.708 902.55 403.226 921.479 387.761 934.015 379.455z" class="svgShape colorfcfafb-51 selectable"/><path fill="#FCFAFB" d="M888.38 458.455C891.171 460.867 892.155 461.419 893.86 464.761 892.01 469.251 889.066 477.739 890.71 482.474 898.595 505.187 933.931 510.372 954.702 508.672 964.114 507.902 973.78 505.504 983.011 503.2 983.65 503.515 984.289 503.831 984.929 504.146 986.21 508.058 985.54 511.092 982.646 513.784 944.139 534.687 858.29 518.143 888.38 458.455zM1108.72 380.78C1139.59 379.852 1156.3 442.936 1068.72 439.149 1065.59 439.076 1062.47 438.758 1059.38 438.389 1054.27 437.778 1056.15 427.71 1057.6 424.641 1062.83 422.877 1069.64 423.029 1075.96 422.572 1089.99 421.499 1111.04 418.533 1121.13 407.591 1129.59 398.412 1114.66 385.645 1108.72 380.78z" class="svgShape colorfcfafb-52 selectable"/><path fill="#FCFAFB" d="M1088.35 383.381C1091.1 383.017 1097.74 383.018 1100.8 382.927 1134.85 404.294 1108.85 413.039 1083.83 416.849 1076.11 417.518 1068.38 418.117 1060.65 418.644 1061.15 414.543 1061.39 411.661 1062.49 407.701L1066.44 406.678 1066.76 405.408 1062.64 403.421C1062.09 402.192 1061.93 401.965 1061.58 400.518 1060.74 397.013 1061.62 393.316 1063.94 390.562 1068.43 385.164 1081.68 384.184 1088.35 383.381zM971.511 886.434C982.116 887.361 1001 923.251 1007.03 932.2 1007.43 938.378 1009.9 948.448 1006.47 952.726L1002.49 951.78C978.928 939.06 949.911 914.384 971.511 886.434zM946.62 382.799C955.105 382.137 963.421 384.399 971.466 385.291 981.358 386.388 990.592 401.612 980.758 405.894L980.816 406.964C984.413 410.61 986.843 412.235 985.65 417.493 982.504 418.767 978.476 417.909 974.758 417.625 952.076 415.283 904.233 409.963 946.62 382.799zM1158.3 458.813C1158.67 459.365 1159.04 459.918 1159.41 460.47 1180.25 505.301 1134.43 525.264 1097.66 521.914 1082.93 520.572 1076.75 519.097 1064.68 514.282 1062.75 511.797 1061.62 508.782 1061.46 505.64 1064.62 501.252 1079.27 507.729 1085.88 508.428 1101.54 510.086 1114.93 509.782 1130.04 505.02 1146.32 499.888 1163.87 485.955 1154.08 467.387 1152.93 465.197 1156.95 460.701 1158.3 458.813zM1075.35 885.66C1102.52 906.751 1068.77 938.8 1048.36 949.08L1039.83 952.824C1039.87 950.251 1039.97 941.758 1040.31 939.685 1043.07 922.921 1062.7 895.567 1075.35 885.66zM906.984 422.557C908.5 423.333 907.729 422.764 909.079 424.522 907.514 426.789 905.831 429.104 904.523 431.53 902.477 435.321 901.548 441.043 902.95 445.187 904.733 450.456 909.666 453.896 914.269 456.575 942.644 473.086 980.665 461.704 986.724 464.493 985.886 467.529 985.367 470.481 985.262 473.632L985.211 475.587 982.832 476.745C951.518 483.988 903.718 483.005 891.262 446.731 895.105 435.304 897.021 429.948 906.984 422.557zM1131.26 1763.14C1142.46 1763.28 1144.24 1763.69 1148.82 1773.95 1149.81 1774.23 1150.79 1774.51 1151.77 1774.8 1157.03 1776.39 1157.75 1776.53 1160.16 1781.06 1161.15 1789.48 1153.39 1794.41 1146.37 1797.25 1136.09 1801.41 1126.01 1800.82 1115.84 1796.43 1112.74 1793.84 1109.89 1789.75 1107.37 1786.48 1094.14 1782.62 1094.7 1781.53 1091.85 1768.16 1111.94 1791.46 1112.34 1768.9 1131.26 1763.14zM1138.66 416.779C1138.63 422.58 1135.58 427.916 1132.72 432.808 1138.9 437.002 1146.02 443.664 1136.35 449.959 1116.95 462.583 1093.93 463.075 1071.64 460.652 1067.84 460.222 1065.1 460.295 1061.87 458.313 1060.1 455.54 1060.97 447.68 1060.88 443.982 1092.76 445.958 1119.68 446.278 1138.66 416.779z" class="svgShape colorfcfafb-53 selectable"/><path fill="#FCFAFB" d="M1139.88 424.862C1144.29 426.262 1146.75 427.842 1149.45 431.621 1159.28 445.388 1156.66 458.385 1142.75 467.323 1119.47 482.286 1091.29 482.109 1065.21 477.047L1063.15 476.398C1061.29 473.496 1059.73 467.119 1057.06 462.515 1081.73 467.526 1126.71 470.614 1144.76 447.65 1151.16 439.509 1141.44 431.763 1139.88 424.862zM913.583 1763.04C940.91 1762.87 936.683 1792.26 961.217 1770.02 956.933 1781.51 957.884 1783.25 945.552 1786.35L939.204 1794.23C931.435 1800.18 926.441 1799.8 915.297 1799.27 910.079 1799.02 885.073 1791.53 893.203 1779.47 893.976 1778.32 912.012 1764.09 913.583 1763.04zM914.164 429.075C938.158 445.278 956.106 446.33 985.353 444.315 985.551 449.71 987.223 453.715 986.157 458.139 983.172 460.947 983.364 460.055 978.253 460.664 963.244 462.141 913.914 464.958 907.33 441.821 906.154 437.688 911.356 432.195 914.164 429.075zM1349 942.178C1367.23 940.147 1359.07 950.765 1373.89 950.905 1377.95 950.944 1378.32 949.663 1380.1 953.757 1378.94 957.575 1379.03 960.204 1378.81 964.228 1372.29 969.458 1369.02 972.327 1363.25 978.32L1352.31 976.216C1346 977.057 1344.31 978.161 1338.83 980.968 1333.11 977.554 1326.15 974.542 1323.85 968.499 1332.19 959.678 1340.39 946.505 1349 942.178zM687.227 942.014C717.261 939.781 701.037 965.355 724.164 965.795L725.614 965.813 726.106 967.398C723.505 971.843 711.843 979.588 706.802 978.906 696.544 975.149 694.157 975.446 684.014 978.415 677.774 971.887 675.835 970.449 668.405 965.913 667.579 962.012 666.567 958.957 667.22 955.062 668.852 952.934 672.036 951.342 674.484 950.589 680.16 948.842 682.811 945.946 687.227 942.014zM898.977 599.337C887.994 593.678 878.834 586.825 881.594 572.751L883.059 571.528C918.6 584.822 913.938 586.042 953.594 584.915 940.774 601.38 941.094 604.102 919.581 604.275 911.238 602.801 907.014 601.875 898.977 599.337zM1164.15 571.854L1166.49 572.51C1177.29 595.615 1120.27 613.975 1106.17 599.317 1102.41 594.676 1098.59 589.549 1094.91 584.796 1121.48 587.61 1140.46 583.795 1164.15 571.854zM1122.2 1967.07L1123.23 1967.5C1131.15 1987.04 1123.34 2018.82 1097.19 2002.86 1089.67 1992.87 1091.02 1982.16 1091.05 1969.94 1091.92 1970.22 1092.79 1970.48 1093.67 1970.74 1106.03 1974.33 1111.44 1972.99 1122.2 1967.07zM932.019 1967.68C943.527 1974.46 950.024 1973.28 961.958 1970.42 962.219 1983.53 963.973 1992.06 955.62 2002.45 948.354 2007.77 937.725 2011.32 932.109 2001.66 925.541 1990.37 929.057 1979.33 932.019 1967.68z" class="svgShape colorfcfafb-54 selectable"/><path fill="#FCFAFB" d="M 928.376 607.627 C 935.552 607.396 939.734 608.58 935.615 616.929 C 929.488 622.218 908.215 617.435 900.8 615.365 C 882.888 610.365 869.802 597.827 871.05 578.161 C 871.359 573.298 871.029 567.954 874.837 564.371 C 877.2 566.22 877.002 566.153 878.259 568.922 C 874.314 582.706 882.616 595.147 895.062 600.813 C 896.529 598.976 895.632 599.78 898.977 599.337 C 907.014 601.875 911.238 602.801 919.581 604.275 C 924.966 605.396 928.908 605.487 934.337 605.62 L 934.3 606.274 L 928.376 607.627 z" class="svgShape colorfcfafb-55 selectable"/><path fill="#5D636D" d="M 895.062 600.813 C 896.529 598.976 895.632 599.78 898.977 599.337 C 907.014 601.875 911.238 602.801 919.581 604.275 C 924.966 605.396 928.908 605.487 934.337 605.62 L 934.3 606.274 L 928.376 607.627 C 918.04 608.277 904.448 605.092 895.062 600.813 z" class="svgShape color5d636d-56 selectable"/><path fill="#FCFAFB" d="M1171.97 564.487C1176.31 567.678 1176.04 574.074 1176.39 578.951 1178.81 613.183 1139.53 619.235 1114.08 619.104 1112.73 615.546 1111.59 611.704 1110.42 608.06 1131.88 608.713 1166.67 605.896 1171.44 578.343 1172.39 572.823 1168.58 571.079 1171.97 564.487zM1163.78 527.921C1165.26 529.802 1164.62 528.878 1164.47 529.893 1160.64 555.806 1118.81 560.474 1098.27 558.435 1085.4 557.158 1080.14 554.798 1073 546.182 1071.36 543.622 1069.44 539.917 1067.92 537.192 1097.39 551.848 1141.99 559.229 1163.78 527.921zM651.731 960.766C656.536 963.221 660.026 966.753 663.926 970.386L650.719 981.483C647.631 984.114 643.714 986.732 643.421 990.421 645.642 991.527 647.328 990.751 650.33 990.39 651.599 996.315 638.582 1020.16 635.161 1026.38L633.378 1027.45C630.624 1025.06 629.618 1017.19 628.667 1012.89 646.485 1002.82 643.313 990.097 627.74 979.562 634.924 972.171 643.183 966.429 651.731 960.766zM1392.33 960.474C1402.01 964.896 1410.73 972.377 1418.04 980.014 1403.49 990.123 1399.62 1003.67 1417.85 1012.21 1416.97 1017.33 1416.99 1024.12 1412.04 1026.32 1407.27 1020.11 1396.9 997.968 1395.38 990.564 1397.55 988.161 1398.14 992.022 1402.42 990.364 1402.17 985.032 1387.07 974.408 1382.35 971.404 1385.78 967.237 1388.61 964.288 1392.33 960.474zM1099.35 1891.5C1107.22 1893.9 1110.71 1893.34 1118.55 1891.93 1117.02 1905.27 1117.43 1924.31 1115.8 1934.97 1106.24 1932.34 1104.34 1932.33 1094.6 1934.32 1096.83 1923.34 1098.46 1902.96 1099.35 1891.5zM934.474 1891.64C942.039 1893.6 945.853 1892.75 953.38 1891.59 954.805 1905.93 956.441 1920.25 958.287 1934.54 949.205 1932.24 946.963 1932.4 937.867 1934.75 938.162 1917.79 936.88 1908.19 934.474 1891.64zM1101.33 1939.12C1120.26 1938.8 1132 1957.34 1109.12 1966.44 1086.55 1967.17 1076.98 1949.28 1101.33 1939.12zM946.247 1939.15C965.516 1940 975.588 1960.12 950.996 1966.64 928.204 1966.03 922.48 1946.73 946.247 1939.15zM1203.62 1876.96C1212.75 1877.95 1220.97 1909.23 1223.54 1917.36 1217.6 1918.61 1216.05 1918.81 1210.59 1921.76 1211.08 1905.87 1200.4 1892.93 1189.24 1882.92 1195.86 1880.88 1197.49 1880.19 1203.62 1876.96zM847.054 1876.1C852.949 1878.57 853.845 1880.25 862.268 1883.18 851.458 1893.77 841.605 1904.72 841.314 1920.72L840.591 1921.66C836.103 1919.58 833.652 1918.65 828.941 1917.14 833.568 1903.03 837.795 1887.77 847.054 1876.1zM938.021 1864.14C945.318 1863.46 953.354 1864.46 957.218 1871.74 958.332 1873.86 958.511 1876.35 957.71 1878.6 956.191 1882.89 952.875 1884.57 949.101 1886.44 931.865 1888.49 920.465 1875.7 938.021 1864.14zM1106.03 1864.06C1123.57 1863.18 1132.26 1879.33 1112.91 1887.08 1095.08 1888.35 1087.26 1873.01 1106.03 1864.06zM1097.35 1378.62C1101.71 1382.29 1107.12 1382.99 1109.29 1385.02 1102.15 1406.19 1109.98 1407.03 1109.55 1419.59 1104.59 1418.5 1102.06 1417.49 1097.37 1415.72 1089.89 1401.53 1088.39 1392.32 1097.35 1378.62zM894.039 1940.03C910.251 1938.31 923.979 1953.43 905.112 1962.13 888.822 1962.87 875.702 1951.73 894.039 1940.03zM953.86 1380.1C956.606 1381.06 958.193 1385.3 959.534 1387.94 959.504 1401.64 960.377 1416.02 944.14 1418.81 942.661 1418.56 943.455 1418.85 941.911 1417.6 946.369 1402.6 946.037 1399.34 942.279 1384.25 947.161 1383.01 949.213 1382.13 953.86 1380.1zM1150.28 1940C1168.03 1939.72 1173.7 1954.45 1157.07 1961.13 1136.61 1962.46 1131.07 1948.98 1150.28 1940zM902.095 1863.13C918.8 1864.37 923.205 1879.98 906.761 1886.47 900.051 1886.16 893.457 1884.39 891.286 1877.03 890.542 1874.53 890.881 1871.83 892.222 1869.59 894.525 1865.7 898.072 1864.47 902.095 1863.13zM1148.12 1863.11C1164.94 1863.83 1169.06 1881.22 1150.57 1886.12 1132.99 1884.8 1131.55 1869.4 1148.12 1863.11zM1186.94 1853.14C1203.5 1853.99 1209.03 1867.59 1191.85 1875.82 1186.5 1876.06 1181.15 1874.67 1178.29 1869.72 1176.6 1866.83 1176.45 1863.29 1177.89 1860.26 1179.86 1856.03 1182.95 1854.83 1186.94 1853.14zM859.819 1853.07C861.08 1853.16 862.338 1853.3 863.59 1853.48 877.144 1855.54 880.961 1867.44 866.773 1876.02 850.789 1875.71 843.406 1861.6 859.819 1853.07zM857.167 1931.96C863.057 1931.89 868.913 1934.03 871.731 1939.6 872.971 1942.1 873.112 1945 872.12 1947.6 870.915 1950.73 867.709 1952.21 864.897 1953.77 860.01 1953.86 855.38 1952.54 851.999 1948.79 849.993 1946.55 849.132 1943.52 849.664 1940.56 850.452 1936.15 853.707 1934.33 857.167 1931.96zM1193.61 1932C1208.55 1934.65 1207.21 1948.63 1192.86 1953.82 1174.79 1951.57 1178.45 1936.46 1193.61 1932z" class="svgShape colorfcfafb-57 selectable"/><path fill="#FCFAFB" d="M617.638 983.862C628.723 982.549 641.253 997.032 627.99 1005.4 612.816 1006.18 604.786 995.662 617.638 983.862zM825.179 1922.69C837.428 1923.26 847.945 1934.63 833.007 1944.08 817.668 1944.38 810.973 1933.76 825.179 1922.69zM1422.45 983.715C1437.07 983.1 1438.74 997.303 1426.28 1005.36 1407.71 1006.33 1409.09 992.429 1422.45 983.715zM1220.89 1923.88C1236.21 1924.07 1239.86 1934.29 1226.83 1944.19 1222.01 1944.26 1217.31 1943.74 1214.26 1939.43 1212.79 1937.36 1212.29 1934.75 1212.9 1932.28 1214.01 1927.8 1217.24 1926.09 1220.89 1923.88zM872.052 1377.33C874.637 1380.84 875.624 1381.27 879.451 1383.43 880.498 1385.51 879.796 1388.12 879.115 1390.52 876.775 1398.79 878.265 1402.45 878.206 1409.03L873.847 1412.43 872.583 1413.69C860.251 1404.08 868.06 1388.27 872.052 1377.33zM657.453 1073.24C664.121 1076.68 670.364 1076.84 673.667 1078.78 671.051 1086.12 670.279 1088.28 669.515 1096.05L669.355 1097.76C668.936 1099.12 669.306 1098.41 667.958 1099.72 663.611 1099.16 659.899 1098.81 655.525 1098.51 656.319 1090.1 656.962 1081.68 657.453 1073.24zM1387.73 1073.15C1388.89 1074.81 1390.56 1094.07 1391.33 1098.94 1385.23 1099.02 1383.6 1098.91 1377.64 1100.7 1376.89 1090.81 1376.38 1086.36 1372.95 1077.15 1379.44 1076.09 1381.65 1076.18 1387.73 1073.15zM1394.05 1127.32L1395.21 1127.48C1396.38 1132.25 1397.52 1145.25 1398.86 1152.21 1393.28 1151.86 1391.74 1151.92 1386.2 1152.69 1384.57 1151.48 1381.93 1133.17 1381.03 1128.9 1386.55 1128.9 1388.69 1128.39 1394.05 1127.32zM634.006 1040.85C645.086 1042.01 656.785 1053.51 642.15 1060.54 629.063 1058.07 618.577 1051.19 634.006 1040.85zM1419.56 1062.04C1422.56 1063.52 1423.62 1080.55 1424.12 1084.62 1420.14 1085.38 1416.14 1086.06 1412.13 1086.66 1409.96 1079.08 1407.62 1074.13 1404.37 1066.9 1411.75 1065.42 1412.87 1065.08 1419.56 1062.04zM651.087 1126.63C657.305 1128.52 658.667 1128.57 665.254 1128.7 662.961 1137.64 662.266 1143.6 661.329 1152.76 659.936 1152.93 650.335 1152 648.245 1151.84 650.137 1142.49 650.867 1136.07 651.087 1126.63zM1162.07 1966.39L1163.12 1967.16 1164.08 1983.69C1158.45 1985.2 1153.24 1985.88 1147.5 1986.76 1146.24 1981.94 1145.67 1973.31 1145.17 1968.08 1152.36 1968.02 1154.98 1967.63 1162.07 1966.39zM625.296 1061.24C631.707 1064.91 635.352 1065.42 642.391 1066.84 638.941 1073.4 637.625 1076.65 635.09 1083.66 634.794 1085.39 635.199 1084.57 633.51 1085.9 629.719 1085.57 626.212 1085.15 622.437 1084.68L625.296 1061.24zM891.507 1967.37C898.931 1968.36 901.224 1968.56 908.668 1968.16 908.328 1974.38 907.836 1980.58 907.191 1986.77 902.685 1987.14 894.479 1985.01 889.803 1983.97 890.214 1978.42 890.881 1972.9 891.507 1967.37zM1177.98 1379.91C1188.54 1386.66 1184.37 1404.67 1178.02 1413.41 1168.25 1410.3 1176.22 1400.55 1173.4 1391.75L1171.1 1384.37C1172.44 1381.86 1174.79 1381.48 1177.98 1379.91zM1408.1 1041.83C1421.94 1041.97 1424.92 1055.07 1408.29 1059.98 1391.12 1060.45 1397.3 1048.33 1408.1 1041.83zM1384.06 1104.07C1384.7 1104.11 1385.34 1104.16 1385.99 1104.21 1398.1 1105.34 1400.81 1117.33 1387.85 1123.12 1374.36 1121.12 1370.49 1109.4 1384.06 1104.07zM842.814 1945.01C846.02 1951.13 846.94 1953.19 851.579 1958.64 851.065 1964.33 848.473 1971.62 840.217 1967.12 833.246 1963.32 844.369 1957.27 843.171 1950.51L841.475 1949.64C839.022 1950.48 838.137 1952.26 836.537 1954.4 834.72 1957.72 834.291 1958.83 831.592 1961.6 831.191 1958.43 831.273 1955.51 829.333 1953.16 824.827 1954.02 820.189 1955.32 816.208 1952.91 814.852 1949.61 815.131 1951.36 815.982 1947.41L817.487 1946.68C821.848 1949.76 825.373 1950.74 830.354 1952.58 834.827 1950.36 838.637 1947.73 842.814 1945.01zM688.673 1076.17C694.471 1077.9 697.503 1079.27 703.512 1078.43 702.458 1086.92 702.079 1092.13 701.933 1100.69 700.673 1101.82 692.183 1101.01 689.153 1101.03 690.278 1091.35 690.377 1085.72 688.673 1076.17zM655.41 1104.05C669.493 1105.18 676.965 1112.41 663.518 1122.97 650.151 1123.33 645.884 1113.59 655.41 1104.05zM1353.73 1077.61L1355.49 1077.06 1356.38 1078.24C1355.47 1085.39 1356.82 1096.67 1355.95 1099.28 1352.64 1101.5 1350.78 1100.85 1346.32 1101.07L1345.65 1101.43 1344.43 1100.49C1344.1 1095.47 1341.96 1082.62 1343.18 1079.6 1345.98 1077.27 1349.89 1077.72 1353.73 1077.61zM1360.82 1069.73C1368.99 1072.73 1371.14 1089.16 1372.04 1096.66 1372.78 1102.87 1372.02 1105.1 1369.65 1110.8L1368.75 1112.35C1360.14 1105.24 1362.9 1080.36 1360.82 1069.73zM1358.81 1128.59L1358.96 1128.65C1360.62 1130.87 1361.03 1146.68 1361.29 1150.78 1356.58 1150.84 1353.5 1151.1 1348.81 1151.65 1348.13 1146.42 1345.21 1134.56 1346.86 1131.16 1350.57 1128.35 1353.61 1128.97 1358.81 1128.59zM685.96 1128.76C691.419 1129.37 694.841 1129.07 700.277 1128.8 699.047 1136.34 698.314 1142.97 697.551 1150.58 694.999 1151.2 687.783 1150.9 684.762 1150.88 685.633 1142.75 685.846 1136.97 685.96 1128.76zM620.91 1090.62C624.146 1089.18 627.913 1089.66 630.689 1091.86 633.464 1094.06 634.787 1097.62 634.123 1101.1 633.459 1104.58 630.918 1107.4 627.527 1108.42 622.719 1109.87 617.611 1107.34 615.861 1102.63 614.111 1097.92 616.322 1092.67 620.91 1090.62zM697.881 1054.95C712.074 1057.19 715.303 1066.5 700.831 1073.01 695.469 1072.71 693.31 1072.6 689.991 1067.91 688.126 1060.71 692.237 1057.92 697.881 1054.95zM1421.64 1090.07C1426.74 1089.89 1431.05 1093.81 1431.36 1098.91 1431.67 1104 1427.87 1108.41 1422.79 1108.86 1419.37 1109.16 1416.07 1107.59 1414.15 1104.75 1412.24 1101.91 1412.02 1098.25 1413.57 1095.2 1415.13 1092.15 1418.22 1090.19 1421.64 1090.07zM605.889 1002.52C612.202 1006.56 614.728 1009.1 622.143 1013.44 617.37 1017.94 616.351 1018.61 610.782 1021.9 604.568 1022.58 600.398 1018.29 595.473 1014.48 598.971 1010.52 602.443 1006.53 605.889 1002.52zM663.53 1053.66C670.895 1053.32 677.358 1056.01 678.538 1063.94 677.796 1067.88 676.764 1068.35 673.806 1071.06 661.728 1071.49 651.982 1065.19 663.53 1053.66zM1439.15 1002.89C1440.76 1003.87 1449.78 1013.2 1451.73 1015.16 1446.42 1019.01 1444.26 1020.12 1438.48 1023.03 1433.1 1020.72 1429.42 1017.07 1425.76 1012.67 1431.74 1008.95 1433.89 1007.67 1439.15 1002.89zM1313.24 1097.48C1317.92 1095.57 1323.27 1097.77 1325.24 1102.43 1327.21 1107.09 1325.07 1112.46 1320.43 1114.49 1317.39 1115.82 1313.86 1115.41 1311.19 1113.42 1308.53 1111.42 1307.15 1108.15 1307.57 1104.85 1307.99 1101.55 1310.16 1098.74 1313.24 1097.48zM683.307 1069.62L684.633 1071.11C684.478 1085.21 686.092 1101.31 677.303 1112.18 673.044 1101.34 675.359 1077.62 683.307 1069.62zM1374.6 1053.96C1381.06 1053.89 1382.57 1053.13 1386.79 1058.35 1389.2 1065.89 1384.42 1068.05 1378.71 1070.74 1373.87 1071.16 1372.88 1071.05 1369.08 1068.22 1365.83 1061.35 1369.65 1058.36 1374.6 1053.96zM1348.22 1106.2C1352.72 1104.1 1358.07 1105.96 1360.3 1110.4 1362.53 1114.83 1360.83 1120.24 1356.47 1122.6 1353.53 1124.2 1349.95 1124.07 1347.13 1122.26 1344.31 1120.45 1342.7 1117.25 1342.93 1113.91 1343.15 1110.56 1345.18 1107.61 1348.22 1106.2zM1342.56 1054.92C1343.28 1054.97 1344.01 1055.04 1344.74 1055.12 1351.69 1055.91 1356.57 1059.24 1355.64 1066.82 1353.46 1070.32 1353.01 1070.33 1349.2 1072.29 1337.14 1072.47 1331.41 1063.61 1342.56 1054.92zM687.471 1008.8C692.348 1013.92 686.005 1041.86 686.757 1049.07 686.996 1051.36 688.93 1049.95 690.497 1052.82L684.186 1059.64C682.114 1057.09 679.723 1054.78 677.418 1052.42L677.554 1051.21C678.709 1050 681.663 1046.84 681.924 1045.38 684.008 1033.68 683.196 1020.04 687.471 1008.8zM1312.63 1050.89C1323.6 1050.54 1334.15 1058.23 1322.58 1066.74 1309.15 1068.49 1302.24 1061.94 1312.63 1050.89zM725.649 1097.38C730.148 1095.43 735.383 1097.41 737.463 1101.85 739.543 1106.29 737.714 1111.58 733.335 1113.79 730.388 1115.27 726.866 1115.04 724.141 1113.18 721.416 1111.32 719.919 1108.12 720.233 1104.83 720.546 1101.55 722.621 1098.69 725.649 1097.38zM724.711 1050.93C725.517 1050.89 726.323 1050.87 727.13 1050.86 737.899 1050.77 743.817 1059.76 732.067 1066.97 719.469 1067.52 713.5 1060.94 724.711 1050.93zM1430.3 1112.19L1431.67 1112.62C1433.33 1119.5 1434.74 1124.45 1436.96 1131.17 1433.07 1132.2 1428.82 1133.57 1424.93 1134.73 1424.46 1134.18 1421.19 1121.18 1418.35 1115.48 1417.57 1116.09 1429.26 1112.56 1430.3 1112.19zM1334.36 1006.71C1338.98 1012.68 1336.7 1045.15 1335.88 1053.94L1333.49 1055.41C1331.8 1053.53 1331.55 1053.08 1330.23 1050.9 1331.31 1034.09 1328.85 1024.71 1334.36 1006.71zM615.701 1111.84C620.59 1113.99 621.955 1112.88 626.807 1115.59 627.539 1118.25 626.829 1118.44 625.22 1121.74 622.835 1126.63 622.915 1129.82 622.51 1135.16 619.53 1134.82 612.566 1132.62 609.354 1131.7 613.157 1123.72 614.186 1120.26 615.701 1111.84zM691.141 1106.5C695.516 1105.08 700.243 1107.3 701.941 1111.57 703.639 1115.85 701.724 1120.71 697.566 1122.68 694.63 1124.06 691.164 1123.71 688.574 1121.75 685.984 1119.79 684.698 1116.55 685.237 1113.34 685.777 1110.14 688.052 1107.5 691.141 1106.5zM719.519 1071.16C726.377 1073.24 727.929 1073.08 735.136 1072L734.94 1091.7 724.612 1091.78C723.687 1083.97 722.408 1078.42 719.519 1071.16zM1455.22 1018.91C1459.3 1020.41 1461.62 1023.62 1462.28 1027.7 1460.08 1033.86 1457.94 1034.56 1452.16 1037.78 1447.62 1034.91 1443.93 1033.69 1443.99 1027.98 1446.32 1023.94 1451.12 1021.56 1455.22 1018.91zM580.989 1034.63C584.897 1038.64 587.326 1040.25 591.803 1043.43 588.114 1047.77 583.866 1051.62 579.728 1055.54 576.377 1056.41 574.786 1056.65 571.917 1054.74 570.733 1049.03 577.581 1040.17 580.989 1034.63zM1310.7 1072.94C1315.66 1073.41 1320.14 1073.04 1325.11 1072.8 1323.87 1078.2 1322.91 1084.31 1321.93 1089.81 1320.3 1093 1314.98 1092.33 1312.29 1090.69 1309.94 1086.1 1310.77 1078.73 1310.7 1072.94zM590.474 1018.5C592.206 1019.12 601.883 1025.76 604.881 1027.47 602.486 1030.87 599.586 1034.07 596.865 1037.24 593.973 1037.21 589.197 1035.44 587.358 1033.23 581.985 1026.79 586.483 1022.41 590.474 1018.5zM1358.23 1009.66C1365.32 1025.35 1359.73 1035.48 1365.62 1048.38 1366.72 1050.8 1366.82 1048.72 1367.53 1052.59L1362.69 1059.37C1360.35 1057.41 1358.52 1055.58 1356.37 1053.44 1356.74 1052.92 1359.77 1048.61 1359.77 1048.58 1360.2 1040.2 1357.53 1030.02 1357.28 1021.71 1357.13 1016.7 1357.59 1013.68 1358.23 1009.66zM1389.98 1157.43C1393.35 1157.04 1395.44 1156.33 1398.21 1158.1 1402.76 1164.94 1401.64 1172.48 1395.1 1177.41 1387.46 1174.3 1382.3 1161.1 1389.98 1157.43zM1465.95 1035.94C1469.31 1039.28 1476.04 1048.89 1474.8 1053.91 1471.93 1056.52 1473.63 1055.5 1468.99 1056.08 1462.24 1052.21 1459.86 1049.44 1455.18 1043.64 1459.56 1041.01 1461.98 1039.05 1465.95 1035.94zM647.403 1156.85C652.058 1157.18 655.419 1156.96 658.73 1160.17 660.84 1165.22 658.425 1169.25 656.328 1174.41 652.4 1176.44 651.187 1176.6 647.747 1174.22 644.815 1168.56 646.346 1163.01 647.403 1156.85zM1434.42 1136.92L1436.87 1137.63C1440.63 1144.02 1440.89 1152.9 1433.03 1156.16 1429.08 1151.96 1425.51 1146.77 1426.74 1140.89 1429.68 1137.48 1429.29 1138.46 1434.42 1136.92zM734.975 1119.59L735.879 1119.99C737.423 1125.7 738.398 1128.03 735.62 1133.03 731.825 1135.82 731.722 1134.95 726.201 1135.5 725.047 1131.97 724.183 1124.34 723.595 1120.34 727.366 1120.22 731.206 1119.88 734.975 1119.59zM1064.68 348.102C1073.11 347.304 1081.59 348.989 1089.07 352.951 1092.15 354.603 1093.29 355.406 1094.26 358.334L1091.68 360.379C1079.45 355.284 1074.52 353.731 1061.07 352.499L1060.99 351.456 1064.68 348.102zM1097.54 1791.4C1100.68 1791.97 1101.71 1791.92 1104.35 1793.8 1105.75 1799.48 1098.99 1808.94 1095.91 1816.71 1094.83 1819.69 1095.61 1819.34 1093.73 1820.58 1091.73 1814.12 1095.19 1798.05 1097.54 1791.4zM608.992 1136.34C612.415 1136.9 617.545 1138.89 620.976 1140.09 619.289 1144.42 617.373 1148.79 615.559 1153.08 612.426 1154.91 612.185 1155 609.141 1153.85 606.073 1149.54 608.148 1141.61 608.992 1136.34zM1310.19 1119.5L1322.33 1120.95C1321.43 1125.7 1321.13 1129.94 1320.7 1134.74L1308.71 1134.45 1310.19 1119.5zM1207.75 1951.93C1211.29 1956.92 1213.65 1958.93 1213.35 1964.61 1210.64 1967.99 1210.46 1967.1 1205.28 1968.57 1202.13 1969.04 1203.66 1969.19 1200.58 1967.86 1197.49 1961.27 1203.4 1955.82 1207.75 1951.93zM1358.18 1155.28C1362.96 1156.79 1363.33 1159.23 1362.11 1164.33 1360.99 1168.95 1358.64 1169.73 1354.68 1171.74 1351.09 1167.58 1348.66 1162.95 1350.13 1157.58 1353.45 1154.99 1353.18 1155.81 1358.18 1155.28zM664.566 1009.74C665.148 1021.14 659.613 1034.18 657.343 1045.41 659.266 1047.59 658.796 1046.63 659.562 1049.39L655.339 1053.12C654.183 1051.91 653.602 1049.3 653.001 1047.5 655.617 1035.46 659.057 1020.5 664.566 1009.74zM684.317 1156.06C689.576 1155.84 693.216 1154.5 696.18 1159.17 696.091 1163.52 694.903 1165.35 693.134 1169.46 692.499 1169.81 690.202 1170.71 689.448 1171.02 682.628 1169.48 684.051 1161.74 684.317 1156.06zM969.615 348.06C975.327 347.703 980.147 347.662 985.216 350.863 982.059 352.833 972.271 352.506 966.446 354.551 962.311 357.113 958.658 359.798 953.714 359.125L953.807 357.73C958.717 351.759 962.453 350.963 969.615 348.06zM1382.12 1014.74C1387.52 1019.2 1388.84 1036.82 1392.72 1043.07 1395.23 1047.12 1393.49 1047.62 1391.28 1051.57L1389.27 1051.65 1387.37 1049.83C1387.29 1044.1 1383.2 1021.64 1382.12 1014.74zM951.448 1790.37C958.443 1794.08 959.884 1808.37 959.132 1815.52L957.805 1816.46C955.054 1808.36 951.364 1804.01 948.852 1796.26 948.058 1793.81 949.706 1792.71 951.448 1790.37zM752.971 688.06C758.883 687.918 767.233 689.13 769.157 695.718L767.566 696.591 762.229 694.985C753.283 693.633 750.315 694.811 741.73 697.103 746.152 692.885 747.628 691.424 752.971 688.06zM1288.73 699.312C1292.64 699.323 1294.96 698.847 1298.06 701.113L1298.27 702.856C1294.93 705.716 1294.69 704.951 1289.68 705.95 1284.57 706.254 1281.81 707.063 1277.92 704.268L1278.32 702.514C1281.8 699.808 1284.17 699.966 1288.73 699.312zM1285.89 688.176C1290.39 687.97 1299.7 688.549 1300.83 694.13 1297.51 695.366 1297.01 694.567 1292.87 693.825 1286.7 693.934 1285.35 695.625 1278.46 694.87L1277.96 693.488C1280.63 690.633 1282.35 690.037 1285.89 688.176zM751.608 699.234C757.209 699.308 766.337 699.773 770.205 704.293L769.873 705.979 767.893 707.073C763.002 706.548 751.778 706.056 748.708 702.567 749.43 699.78 748.705 701.004 751.608 699.234zM889.362 1990.51C894.911 1991.6 902.617 1990.13 904.448 1995.4L902.211 1999.96C894.494 2006.71 891.797 1996.36 889.362 1990.51zM1158.52 1991.26L1162.54 1990.9C1166.09 1995.09 1159.26 2000.93 1155.92 2003.37 1152.92 2000.54 1150.09 1998.37 1150.13 1994.11 1153.56 1991.37 1153.54 1992.14 1158.52 1991.26zM1183.16 1981.46C1187.92 1980.72 1190.71 1979.24 1193.25 1983.67 1193.06 1987.44 1191.79 1989.33 1190.15 1992.71L1188.3 1992.78C1184.14 1990.66 1181.2 1985.99 1183.16 1981.46zM863.337 1978.96C867.919 1979.72 869.637 1979.32 872.467 1982.08 872.612 1985.45 870.772 1987.62 868.982 1990.64 867.049 1992.38 868.222 1991.87 865.532 1992.42L863.852 1990.62C862.624 1985.96 863.047 1983.78 863.337 1978.96zM812.359 1956.55C816.311 1958.72 819.857 1959.2 822.707 1961.7 823.141 1965.06 822.278 1964.9 819.887 1968.67 817.858 1970.7 819.106 1970.15 816.247 1970.66 812.378 1967.17 812.686 1961.75 812.359 1956.55zM733.674 1140.06L734.629 1140.16C738.023 1143.5 733.896 1149.93 730.97 1152.59 728.125 1149.62 726.505 1147.06 726.535 1143.16 729.254 1140.18 728.814 1141.09 733.674 1140.06zM1056.46 357.088C1061.26 356.912 1071.95 356.377 1075.27 360.205L1073.25 360.755C1066.62 360.693 1060.29 362.279 1054.56 361.469L1053.87 360.125 1056.46 357.088zM891.069 668.68C896.171 670.327 905.599 673.902 907.356 678.859 898.466 681.653 894.313 675.812 891.069 668.68zM1154.79 668.862L1155.85 669.177 1156.32 670.429C1153.28 675.702 1148.78 678.109 1143.34 680.48 1140.8 677.751 1141 679.049 1140.9 676.391 1143.02 674.198 1150.67 671.295 1154.79 668.862zM834.337 1970.93C838.874 1972.7 840.791 1972.17 845.404 1974.47L845.942 1976.24 843.144 1980.15C840.711 1982.56 842.072 1982.16 839.237 1982.22 836.604 1979.62 835.526 1974.63 834.337 1970.93zM1238.04 1958.17L1238.95 1959.12C1239.25 1963.27 1239.08 1969.37 1233.73 1969.45 1231.51 1967.06 1230.66 1966.46 1229.58 1963.33 1231.57 1960.39 1234.37 1959.86 1238.04 1958.17zM1309.46 1139.73C1312.76 1139.94 1315.38 1139.68 1318.03 1141.5 1318.97 1145.13 1318.07 1145.42 1316.7 1149.71 1314.55 1151.13 1315.69 1150.97 1313.32 1150.69 1310.84 1147.86 1310.34 1143.54 1309.46 1139.73zM1234.53 1947.25L1235.55 1947.19 1236.56 1949.03C1234.51 1954.87 1230.63 1954.86 1225.09 1955.54 1222.85 1953.84 1223.51 1954.94 1222.53 1952.56 1224.08 1950.84 1231.32 1948.68 1234.53 1947.25zM971.452 357.27C978.005 356.857 986.176 355.204 991.014 360.033L990.201 361.354C985.303 360.803 973.676 360.754 970.363 359.128L971.452 357.27zM1212.14 1973.2C1214.41 1973.04 1213.26 1972.88 1215.55 1973.8L1215.87 1976.59C1214.21 1980.21 1214.99 1979.89 1212.17 1981.91 1209.64 1979.77 1207.51 1978.26 1205.66 1975.5 1207.41 1973.15 1208.15 1973.83 1212.14 1973.2zM1210.07 1945.61C1217.23 1949.55 1222.53 1953.01 1219.8 1961.73 1217.21 1956.2 1214.74 1952.1 1209.46 1948.8L1210.07 1945.61zM856.603 1959.12C858.874 1959.78 858.421 1959.62 860.47 1960.67 860.643 1964.21 857.527 1969.74 855.955 1973.43 855.67 1974.15 855.925 1973.68 854.734 1974.46 853.93 1971.43 855.955 1962.73 856.603 1959.12z" class="svgShape colorfcfafb-58 selectable"/></svg></g></svg>